<mxfile host="app.diagrams.net" modified="2022-11-24T01:33:45.703Z" agent="5.0 (Windows NT 10.0; Win64; x64) AppleWebKit/537.36 (KHTML, like Gecko) Chrome/107.0.0.0 Safari/537.36" version="20.6.0" etag="XAo5Hy2XAxE8BEdqlgUJ" type="github" pages="2">
  <diagram id="B6TrkUE3Arw3LcQ6iLSa" name="network구조">
    <mxGraphModel dx="1422" dy="1105" grid="1" gridSize="10" guides="1" tooltips="1" connect="1" arrows="1" fold="1" page="0" pageScale="1" pageWidth="827" pageHeight="1169" math="0" shadow="0">
      <root>
        <mxCell id="0" />
        <mxCell id="1" parent="0" />
        <mxCell id="70Bzym0n0cOpZuM3N7GF-6" value="" style="edgeStyle=orthogonalEdgeStyle;rounded=0;orthogonalLoop=1;jettySize=auto;html=1;fontSize=20;" edge="1" parent="1" source="70Bzym0n0cOpZuM3N7GF-2" target="70Bzym0n0cOpZuM3N7GF-5">
          <mxGeometry relative="1" as="geometry" />
        </mxCell>
        <mxCell id="70Bzym0n0cOpZuM3N7GF-2" value="PC&#xa;IP:127.0.0.1" style="shape=image;verticalLabelPosition=bottom;labelBackgroundColor=default;verticalAlign=top;aspect=fixed;imageAspect=0;image=data:image/png,iVBORw0KGgoAAAANSUhEUgAAAgAAAAIACAYAAAD0eNT6AAAABHNCSVQICAgIfAhkiAAAAAlwSFlzAAAOxAAADsQBlSsOGwAAABl0RVh0U29mdHdhcmUAd3d3Lmlua3NjYXBlLm9yZ5vuPBoAABvvSURBVHic7d15tD93Xd/x5y/LLwkhgYQo+yKQkBopUqmgSAm7VVFAqiCC0KDIYfPUpR7RioqKS8UWRURRDghoQWlVFBAooCDIorVGIKIEUAk7CWT5Zfv1j0kwpL/t3pn7ne/3zuNxzvyR5M7M+37vZOb1/cxnKQAAAAAAAAAAAAAAAAAAAAAAAAAAAAAAAAAAAAAAAAAAAAAAAAAAAAAAAAAAAAAAAAAAAAAAAAAAAAAAAAAAAAAAAAAAAAAAAAAAAAAAAAAAAAAAAAAAAAAAAAAAAAAAAAAAAAAAAAAAAAAAAAAAAAAAAAAAAAAAAAAAAAAAAAAAAAAAAAAAAAAAAAAAAAAAAAAAAAAAAAAAAAAAAAAAAAAAAAAAAAAAAAAAAAAAAAAAAAAAAAAAAAAAAAAAAABYnT0THeeE6qure1RnVneoblKdWN1gonMAbNXnqourT1TnVe+t3lL9RXXljHVN6cTqntXdG+6/t+9f7r8nzFgX413ScP1+snp/9b7qz6u3VpeNPfiYAHB89Y3VY6r7XfPPAJvgc9UfVC+uXltdNW85W3aD6qHVo6v7VHvnLYcVu6z6k+pFDdfxvu0cZDsB4IbVOdUPVLfYzkkB1sj51S9Wz68unbeUwzq5emL1/Q3f8uHj1XMbruHP7OSJ/kN1QbXfZrPZdtn2/urrWk97GlpbP978n5NtPbcLGq6RI/5if6Q/eNOGprIHHOmBATbUi6onNbwmWAe3rl5S3WvuQtgIr2kIAh873A8eSQD4murl1c1GFgWwKd5bPaSh09WcHlC9LM39bM1Hqoc3dBY8qKMOc5AHN3SQ8fAHluTMhpvnV89Yw8MaOnh5+LNVN6/eUH3zoX7oUC0A31S9ojpmwqIANslnq/tW71zxeR/V8CricF/S4FCubAgBv3+g/3iwAHCvhvcIxpACS/fxhnH2f7ei831tww372BWdj93t0oZXSW+5/n84UAC4afWXDU0IANS51Vc2TMyyk27TcP89dYfPw7J8tLprQ9+Az7t+89Ke6qV5+ANc11kN46x30jENHa49/JnaTRteKX3Bl/7rB4BzGt53AfCFHt8w695OeWpDKwPshPs3DA/8vOumgVMa3nHpcQpwYOdWd2n6qYNv3jDk8KSJjwvX9bHqjOrC+sIWgKfm4Q9wKGdV37oDx/2+PPzZeV9cPfnaf7i2BeDE6oMJAACHc25154bpV6dwasP994YTHQ8O5RPVbatLrm0BeHge/gBH4qymnSDoUXn4szqnNUwy9flJfh494cH/saG34WuqD7fDqxMBHMJp1e0aFvl5TNP1sH9MBxhXvU1T3n8/0HD/fV3D/feiCY/N6t24YWjoAxuuuVtNdNzHVL9VdaOG2YLGrkR0VfXjmTwIWE+nNCz5O8XKa//c9pZTv75bTFTPFdUPVnsnqIn1dEL1zOrqprleTqphvv8pHv6P2LnfG2AyP9A0D90vnaCWR01Qx+XV109QC5vhkQ3P3LHXzddX/fQEB/ovO/rrAkzrhY2/7z1+gjp+eYI6njZBHWyWH2v8dfOTVa8ceZAPVMft7O8KMKkvahgLPebe9/MT1PG6kTX8TXX0BHWwWY6vzm/ctfO7R1Wnjyzk16t9I48BsEofb5h2d4yx984aJmUZ41ebflIi1t9l1QtGHuP0oxo6xozxmpH7A8zh1SP3n2JEgfsv2zX6+j2qOnnkQT4wcn+AOZw/cv+xM/cd1TAJ23btb5hAiGU6f+T+Jx3V+GEjnx25P8AcLhy5//Ej99/buKGE+/L6dclGX7/XXw0QAFgAAQAAFkgAAIAFEgAAYIEEAABYIAEAABZIAACABTpm7gIA2Jbjqk/NXQSbSwAA2Ex7Gj+VMAvmFQAALJAAAAALJAAAwAIJAACwQAIAACyQAAAACyQAAMACCQAAsEACAAAskAAAAAskAADAAgkAALBAAgAALJAAAAALZDlggM20r7r53EUwm73VBWMOIAAAbKb91afnLoLZ7B17AK8AAGCBBAAAWCABAAAWSAAAgAUSAABggQQAAFggwwABNtPxDUMBYVu0AADAAgkAALBAAgAALJAAAAALJAAAwAIJAACwQAIAACyQAAAACyQAAMACCQAAsEACAAAskAAAAAskAADAAgkAALBAAgAALNAxcxcAwLZcVp0wdxHMZm+1b8wBtAAAwAIJAACwQAIAACyQAAAACyQAAMACCQAAsEACAAAskAAAAAskAADAAgkAALBAAgAALJAAAAALJAAAwAIJAACwQAIAACyQAAAACyQAAMACCQAAsEACAAAskAAAAAskAADAAgkAALBAAgAALJAAAAALJAAAwAIJAACwQAIAACyQAAAACyQAAMACCQAAsEACAAAskAAAAAskAADAAgkAALBAAgAALJAAAAALJAAAwAIJAACwQAIAACyQAAAACyQAAMACCQAAsEACAAAskAAAAAskAADAAgkAALBAAgAALNAxcxcAAIdwanV2dffqTtUZ1cnVidX+6uLqwuq86n3VW6s3X/PvOIx9DR/idre9qy8ZYLTTG3fve+/I8x8/8vyXjjz/OrtR9V3Vn1VXtfXP5srqDdVjqxuutvSV2du462dfCQDAMgkA6+em1c9UFzXus7nu9qnqx6ubrPD3WAUBAGCbBID1cUz1tIZm+6ke/NffPn3NOY5e0e+00wQAgG0SANbDHap3tHMP/utvb65utZLfbGeNDgBGAQAwlwdX76rutsJz3qv6y+q+KzznWhIAAJjDY6rfa+jwt2qnVX9cPWKGc68NAQCAVTunemHzDkXfW72k+pYZa5iVAADAKn1T9avVnrkLaXgGvqiFvg4QAABYlTs2PHDXqSf+cdXLq9vOXciqCQAArMKx1f9omMVv3ZzaEEwW9Uxc1C8LwGz+U3XXuYs4hH9XPX7uIlZJAABgp92y+pG5izgCP93QGrAIAgAAO+37GxbvWXenVk+du4hVEQAA2EmnVd85dxFb8NR27wJCX0AAAGAnPaq6wdxFbMEp1cPnLmIVBAAAdtJjJjzWe6ofaOhM+MXVzRqmEf6h6u8nPM+UNa81iwEBS2QxoJ13y6ZZwGdf9ZQOPX/AsdUPVldOcL4rm2eK4q2wGBAAa+s+Exzj8urrqudUVx3i566onlU97DA/dySOru498hhrTwAAYKd81QTH+J7q9Vv4+d+vfniC805R+1oTAADYKXcauf9fN6wbsFW/0Pg+AWNrX3sCAAA75fSR+z+/unob+11evWDkucfWvvYEAAB2yikj93/tTPvWAmYEFAAA2Al7Gjf73/7qwyP2/+CIfatOGrn/2hMAANgJe2Y+//6Zz7/2BAAAdsLV1cUj9t/TMI/Adt1mxL5Vnx25/9oTAADYKZ8Zuf/9Z9q36tMj9197AgAAO+X9I/d/fNt7lXBM9biR5x5b+9oTAADYKe8buf/d2t68/E+q/tXIc4+tfe0JAADslLdNcIxfqe6xhZ+/X/VzE5x3itrXnsWAgCWyGNDOu03TLAZ0SfXYDv064KiGb/5jn2n7G9YSWPd5AEYvBlQCALBMAsBq/J+mCQH7q3dUT6hu3/DsOa7h7/ikic/z5h35JKY1OgAcs/qaAViQ36p+dqJj3e2abae9eAXnmJ0+AADspBdXl81dxBZcVL187iJWQQAAYCddUL1w7iK24JcbP3/BRhAAANhpP9NmtAJcVP3i3EWsigAAwE47vyEErLsfqT42dxGrIgAAsArPqv527iIO4S8amv8XQwAAYBUuq76lYUz/uvlM9ciG8f+LIQAAsCrnVuc0rBS4Lq6svr36h7kLWTUBAIBV+u3qKXMXcY391XdXr5q7kDkIAACs2nMbQsCcLQFXNTz8XzBjDbMzFTCwRKYCnt8jqoubbgrfI90urB68gt9vJ42eClgLAABz+e3qK1vt6IB3V19R/cEKz7mWBAAA5nRu9eXV9zS0BuyUS6ofq76qev8OnmejeAUALJFXAOvnNg1j8S9tuub+z1W/UN18hb/HKlgOGGCbBID1dbPqexu3xO87qqdWp6249lUZHQD2NASAMQ/x46rLR+wPMIfTq/NG7P++6swR+x/fuIf4ZdUJI/bfFLeu7tvQdH/GNdvJ1UnX/PeLGjr1ndfwN3lr9YbqIyuvdLX2ds23+G26vLQAAMukBYBNZhQAALB1AgAALJAAAAALJAAAwAIJAACwQAIAACyQAAAACyQAAMACCQAAsEACAAAskAAAAAskAADAAgkAALBAAgAALJAAAAALJAAAwAIJAACwQAIAACyQAAAACyQAAMACCQAAsEACAAAskAAAAAskAADAAgkAALBAAgAALJAAAAALJAAAwAIJAACwQAIAACyQAAAACyQAAMACCQAAsEACAAAskAAAAAskAADAAgkAALBAAgAALJAAAAALJAAAwAIJAACwQAIAACyQAAAACyQAAMACCQAAsEACAAAs0DETHOOU6vIJjgOwSifPXQDMaYoAcMEExwBg/Z1RPa66X3Xr6rh5y5ndZdWHqtdWv1l9YN5ytmZPta/aO3chABvmfdWZI/Y/vrp0xP6XVSeM2H8rjq1+tnpy03xx3I0ur36u+tHqqhWcb2/D83u7LveHBOBQ9lZ/WD1g7kLW3N7q6dVZ1cNbTQgYRSdAAA7l2Xn4b8VDqp+Yu4gjIQAAcDB3rr577iI20PdWt5+7iMMRAAA4mCfkObEde6tz5i7icPxhATgYTf/b98C5CzgcAQCAA9lT3WbuIjbY7eYu4HAEAAAOZs/cBWywtX++rn2BAMxif/VPcxexwT40dwGHIwAAcDCvn7uADfa6uQs4HAEAgIN5QUNLAFtzVfXCuYs4HAEAgIN5e/XSuYvYQM+rzp27iMMRAAA4lCdU75y7iA3y5oaJgNaeAADAoVxcnd3QEuB1wMFdXf1a9aDGLdKzMlOsBvjpiWqB69vTsPLYFXMXwq50VHWjEfsvaTXAa92jenzDBEG3rI5e8fnXzZXVhxuWA35+9e4VnnstVgO8WcMyiDCFs6onVv++Yb3xY6sLqj+tXlz9wXylscucXp03dxEb5m3XbDU8/E+esZZ1cGHDN/+Nta+hWWe725jWA7jWMQ2rjl3Zoa+3N1Y3n6dEdpnTG3fve+/I8x8/8vxjWg/YfHsbd/3sKwGA+R1VvbIjv+Y+VN1qlkrZTQQANtnoAKATIOvghxvW0D5St65ekU6sANvmBsrcbl79523sd/fq2yeuBWAxBADm9sjqBtvcd+3X2wZYVwIAc7vPiH3v2eqHQQHsCgIAcxvTme/o6hZTFQKwJMc0jOEf05P/5OoT05TDAl01cv8rJ6mCJRozCVANE/EszRnV46r7NXTGPW7ecmZ3WcOopNdWv1l9YN5ytu6fGjeU4CtWXzK7yO81bhzr0m9AbN83N+7e96cjz79JwwCPbZin44qRNe/mbV/1zFY3O+IkwwDHTuX7wJH7s2yvGbHvG9uQObdZSw8auf+nJqli/e2tXlV9T0OrMQe2t3p6wxDljZkieSsTsBxoe38mA2L7btzwCmk7195W5g6A6zqt+kzj7n0/P7KGTWkB+OWRdS5x+6ltfdJbM8lMgM8aeZD91Q/t8C/K7vb4tn7NvXqWStktfr3x973vHFnDJgSAOzf005n7gbpp277q9tv4vLdikgDwjSMPsr+hI9bDdvZ3ZZf7hY78evu/1anzlMku8LSmucmfNbKOTQgAvzSyxiVvP7mNz3srJgkAN+7wC7AcyXZV9SPplMX2PbFDN8teXb2kOmmuAtloJzddc/ZHGparHmMTAsD7Rta45O0d2/i8t2J0ALj2An5D4yZkua7zqxc2DIv4YBasYGtOqx7bsBzw6Q2B8p+rNzUsB/yu2SpjE51Y3bHhenpc9UUTHffXqu8aeYzjG3d/vKydnQhrT3VJQ51s3Sea7no7kL2N6wR9+bUB4HHVb4yvB2AR7lX92chjbEIAuDStutv1qeomO3j80QHg2pkAX9744YAAS/Ce6i1zF7EC+xvmiWF7PjR3AYdzbQD4XPWcOQsB2BA/1fBwXILXz13ABnvd3AUcznU7sZxa/V16VwMczHuqf900U1Cv+yuAGpbd/vPGd3hcmququ1Tn7uA5JnsFUMP7CuP5AQ7uyS1r/Ym3Vy+du4gN9Lx29uE/ieunuqMaRgTce4ZaANbZb1TnTHi8TWgBqGEkxRuru63gXLvBmxumyN/paconbQGoYZz1I6oLRhwUYLc5r2Eu/CW6uDq7oSVgKX0ftuPqhuGhD2pD1ig52HudsxumWjX8A1i6T1ZfU7134uNuSgvAdd2jYeruB1S3bIMWvdkhV1Yfbpj35vnVu1d47snmATiQb65+J39gYLkuru5fvW0Hjr2JAeC6jm6YXXHJLmz45j+HHQ0AVd9Uvax5LzKAOXy6Ya2UsRP+HMymBwDmNXkfgOv7Xw1TaH5sxEkANs15Dc3+O/Xwh9kdLgDUMAf7lzeMDgDY7V7a0OP9b+cuBHbSkQSAGla+un/1HWkNAHanf6i+oXpU9dmZa4Edd6QBoIbhHy+qzmhY9vcTO1IRwGp9sHpSdVb1qplrgZUZM73jDaqHVo+u7lsdO0lFADvvkuqPGpaY/uPqihlq0AmQMXZ8FMCRumHD8pj3qM5sWH/7xtUpEx2frTm24W8yxkUN81nj89xkVzcM1fp49f6G9/pvaRjWN/dkLQIAY6xNAGC9PKX67yP2v7o6LUtEX+su1V+NPMaDqz+coBZ2j00MAGdUj6vuV906k8Vd1rDs72ur36w+sMJzjw4AUxXCenlFQ5+N7W7vWn3Ja21PwzfIMZ/pz628atbd8Y27psaEh606tnp2w6uSMTXv5m1f9cxWN3ne3gnqZZeZ4mH1X1de9fr7vcZ9pu9YfcmsuU0JAHsbvuHO/YDdlO2VrSYEjA4AWxkFwGb4sobm+zHeNEUhu8zYz+SuDf1iYNM8u2Huf47MQ6qfmLsIlukpjUuFV6Xz5oHcpfHfDL5h5VWzzjahBeDODfeEub9Vb9q2r7r9Nj7vrdACwP/n3iP3/6t0/juQv2783Bdj/zawak9oa/PFMNhbnTN3EYfjD7u77Gn8Q+aNE9SxG+2v/nTkMc6eoA5YJU3/2/fAuQs4HAFgd/H+f2fpB8CS7KluM3cRG+x2cxdwOALA7nL2yP2vbvy33N3sjSP3P7phhTnYFOaK2b61f76ufYFsiff/O0s/AJZkf/VPcxexwT40dwGHIwDsHt7/7zz9AFia189dwAZ73dwFHI4AsHt4/78a+gGwJC9oCL5szVXVC+cu4nAEgN3j7JH7e/9/ZN44cn/9ANgkb69eOncRG+h51blzF8FymP9/NawLwFQ2YSKgqhMbprKee3KdTdne1GoWSTIREJX3/6u0P/0AWJaLG67ZlzZc/xzY1dWvVQ9qQxbaOWbuAjikG3dkw3DObPz7/7/MFMBH6p3VQ0fsf9eGpVQ/dwQ/e1V10YhzwRQurh5VPad6fMMEQbdsdSvfrasrqw83LJb0/Ord85azNcZ4zm9PQwe++1Z3r+5U3bE6ec6iWDufrN5fvad6a/W/r/lnNtfxjWvGv6w6YaJatuPo3KcubPjmP4e9jWtpuFwAmM8dqsdWj65uO28pbKhzqxdds10wcy1s3aYHAOY1OgBMVQhH7suqlzU0Hc3dWcW2O7ZLq+dm2tZNsymdAFlPozsBrr7k5TqxelZ1RfM/MGy7c7ukekar6YHMeAIAYwgAG+Ju1d83/wPCtozt3OqsWHcCAGMYBrgBntjQaev2cxfCYnxp9efVN85dCLC+BICd9YyGd7PHzlwHy3NS9bvVf5y7EICleUbzNwXbbFcnBKwrrwAYQx+ANfXdzX/jt9mu3S6vvjbWjQDAGKMDgHkApvdvqz9r+OPAuvh09W+q82eug39hHgDGGD0PgD4A07ph9Tt5+LN+Tql+K/1+gGu4GUzrGdWXzF0EHMQ9G+ZxB7AWwITOrP46Pf5Zb59qmIb6M3MXglcAjOIVwBr5oTz8WX+nVk+ZuwhgfloApnGbhpn+LK/MJvhkwzV7ydyFLJwWAMYY3QLggTWN72hnHv6XZajP0p3Y9J1Kb1I9pHrpxMcFWJzzmm7M9uuqb61OW+lvwDq7ZXVO9c6mu87+eKW/AQdyVMNETdv9G17d0IrAMn1x4+4BF66+5N3njKa5IX86c7dzaHuqJzQ0+4293jQfr4fPNu7veMbqS2ZNfGXjrp1/1AlwvPtMcIwLq3tVvz/Bsdi99le/Wn1Dw7LSYxzXMCyQeX1q5P5meFyusX/7T05SxcL9RuO/jT105VWz6b6/8dfd01deNdf3+sb9Dd+bzsdLdHz1wcZdO6/QAjDe2Ca4N1WvnKIQFuW/VR8YeYw7TVEIo7xn5P53yrDOJXp6w0ieMd47RSFLd0HjUthjVl8yu8SPNe7ae8vqS+Z6vq3xLTlXNLwWYhm+rXGdR6/dvm7Vhe9Glzbuj3Cr1ZfMLnHvxl17566+ZK7n5k1zM7+y4VvhcastnxW6QfVTTXO9XF6dZCKgcY5t+CC36+rqZg3/88JWfUn1rhH7f7jxzYiM9/aGHt1T+GD1oobhxB/KUK9Nd0p12+qBDa3Ft5jouK+pvlYAGOcG1cVzFwHb9NGGAMq8nlw9Z+4iWJRvr14iAIwjALDJBID1cGrDN/cbzl0Ii/Dx6nbVJUYBAMzrU9Xz5i6CxXh216wDogVgHC0AbDItAOvjZtX7qpPnLoRd7aMNQ9cvqmEuagDmdUH1o3MXwa73fV3z8C8BAGBd/FL1trmLYNd6TfWS6/4LAQBgPVxZfUvmaGd6H60e2zAHwOcJAADr48PVIxs3vwhc1yXVQxpeM30BAWCcS/M/KpvrM3MXwAH9ScO3tatnroPNd0VDq9IBXy0JAOPsb5htCzbR+XMXwEG9rHp4ddnchbCxLmlYafZVB/sBAWC818xdAGzTq+cugEN6ZfX1DRO3wFb8Y3XfDvHwL/MATOHLqr+qjp67ENiCi6o75uGyCW7R0Hv77JnrYDO8quEV0icO94NaAMb7m+q5cxcBW/TDefhvin9u+Db3HdXHZq6F9fWRhmvkwR3Bw5/pHFv9UeOXaLTZVrH9Smyqk6qnNYSCua8j23psH62ekVkkZ3VM9dPVvua/IGy2A20XVk+N3eCEhuGCf9TQUXDua8u22u3i6n9WD6uOa5v0AZjel1SPru7XsNb6jeYth4X7ZENv/1c3rBOv2X/3OaG6Z3X36szqDg0rDJ50zX9jc11SfbZhwai/a1gv4q0Nw/r2zVgXAAAAAAAAAAAAAAAAAAAAAAAAAAAAAAAAAAAAAAAAAAAAAAAAAAAAAAAAAAAAAAAAAAAAAAAAAAAAAAAAAAAAAAAAAAAAAAAAAAAAAAAAAAAAAAAAAAAAAAAAAAAAAAAAAAAAAAAAAAAAAAAAAAAAAAAAAAAAAAAAAAAAAAAAAAAAAAAAAAAAAAAAAAAAAAAAAAAAAAAAAAAAAAAAAAAAAAAAAAAAAAAAAAAAAAAAAAAAAAAAAAAAAAAAAAAAAGzZ/wP7PJZq0r1MJQAAAABJRU5ErkJggg==;fontSize=20;" vertex="1" parent="1">
          <mxGeometry x="80" y="80" width="200" height="200" as="geometry" />
        </mxCell>
        <mxCell id="70Bzym0n0cOpZuM3N7GF-7" value="VirtualBox" style="swimlane;whiteSpace=wrap;html=1;fontSize=20;" vertex="1" parent="1">
          <mxGeometry x="320" y="-120" width="640" height="640" as="geometry" />
        </mxCell>
        <mxCell id="70Bzym0n0cOpZuM3N7GF-8" value="Node2&#xa;IP:10.100.0.107" style="shape=image;verticalLabelPosition=bottom;labelBackgroundColor=default;verticalAlign=top;aspect=fixed;imageAspect=0;image=https://upload.wikimedia.org/wikipedia/labs/thumb/b/ba/Kubernetes-icon-color.svg/2110px-Kubernetes-icon-color.svg.png;fontSize=20;" vertex="1" parent="70Bzym0n0cOpZuM3N7GF-7">
          <mxGeometry x="360" y="360" width="200" height="200" as="geometry" />
        </mxCell>
        <mxCell id="70Bzym0n0cOpZuM3N7GF-11" value="Node1&#xa;IP:10.100.0.106" style="shape=image;verticalLabelPosition=bottom;labelBackgroundColor=default;verticalAlign=top;aspect=fixed;imageAspect=0;image=https://upload.wikimedia.org/wikipedia/labs/thumb/b/ba/Kubernetes-icon-color.svg/2110px-Kubernetes-icon-color.svg.png;fontSize=20;" vertex="1" parent="70Bzym0n0cOpZuM3N7GF-7">
          <mxGeometry x="360" y="40" width="200" height="200" as="geometry" />
        </mxCell>
        <mxCell id="70Bzym0n0cOpZuM3N7GF-5" value="Master&#xa;IP:10.100.0.105" style="shape=image;verticalLabelPosition=bottom;labelBackgroundColor=default;verticalAlign=top;aspect=fixed;imageAspect=0;image=https://upload.wikimedia.org/wikipedia/labs/thumb/b/ba/Kubernetes-icon-color.svg/2110px-Kubernetes-icon-color.svg.png;fontSize=20;" vertex="1" parent="70Bzym0n0cOpZuM3N7GF-7">
          <mxGeometry x="80" y="200" width="200" height="200" as="geometry" />
        </mxCell>
        <mxCell id="70Bzym0n0cOpZuM3N7GF-9" value="" style="edgeStyle=orthogonalEdgeStyle;rounded=0;orthogonalLoop=1;jettySize=auto;html=1;fontSize=20;" edge="1" parent="70Bzym0n0cOpZuM3N7GF-7" source="70Bzym0n0cOpZuM3N7GF-5" target="70Bzym0n0cOpZuM3N7GF-8">
          <mxGeometry relative="1" as="geometry" />
        </mxCell>
        <mxCell id="70Bzym0n0cOpZuM3N7GF-10" value="" style="edgeStyle=orthogonalEdgeStyle;rounded=0;orthogonalLoop=1;jettySize=auto;html=1;fontSize=20;" edge="1" parent="70Bzym0n0cOpZuM3N7GF-7" source="70Bzym0n0cOpZuM3N7GF-5" target="70Bzym0n0cOpZuM3N7GF-8">
          <mxGeometry relative="1" as="geometry" />
        </mxCell>
        <mxCell id="70Bzym0n0cOpZuM3N7GF-12" style="edgeStyle=orthogonalEdgeStyle;rounded=0;orthogonalLoop=1;jettySize=auto;html=1;fontSize=20;" edge="1" parent="70Bzym0n0cOpZuM3N7GF-7" source="70Bzym0n0cOpZuM3N7GF-5" target="70Bzym0n0cOpZuM3N7GF-11">
          <mxGeometry relative="1" as="geometry" />
        </mxCell>
      </root>
    </mxGraphModel>
  </diagram>
  <diagram name="NodePort" id="9eJlfdMG28WANIyBRCnE">
    <mxGraphModel dx="2770" dy="1175" grid="1" gridSize="10" guides="1" tooltips="1" connect="1" arrows="1" fold="1" page="0" pageScale="1" pageWidth="827" pageHeight="1169" math="0" shadow="0">
      <root>
        <mxCell id="LLZiwmeWTUKl-NR1jxIl-0" />
        <mxCell id="LLZiwmeWTUKl-NR1jxIl-1" parent="LLZiwmeWTUKl-NR1jxIl-0" />
        <mxCell id="LLZiwmeWTUKl-NR1jxIl-2" value="10.100.0.105:30080" style="edgeStyle=orthogonalEdgeStyle;rounded=0;orthogonalLoop=1;jettySize=auto;html=1;fontSize=20;strokeWidth=3;fillColor=#f8cecc;strokeColor=#FF0000;" edge="1" parent="LLZiwmeWTUKl-NR1jxIl-1" source="LLZiwmeWTUKl-NR1jxIl-3" target="LLZiwmeWTUKl-NR1jxIl-7">
          <mxGeometry x="-0.3846" relative="1" as="geometry">
            <mxPoint as="offset" />
          </mxGeometry>
        </mxCell>
        <mxCell id="LLZiwmeWTUKl-NR1jxIl-3" value="PC&#xa;IP:127.0.0.1" style="shape=image;verticalLabelPosition=middle;labelBackgroundColor=default;verticalAlign=middle;aspect=fixed;imageAspect=0;image=data:image/png,iVBORw0KGgoAAAANSUhEUgAAAgAAAAIACAYAAAD0eNT6AAAABHNCSVQICAgIfAhkiAAAAAlwSFlzAAAOxAAADsQBlSsOGwAAABl0RVh0U29mdHdhcmUAd3d3Lmlua3NjYXBlLm9yZ5vuPBoAABvvSURBVHic7d15tD93Xd/x5y/LLwkhgYQo+yKQkBopUqmgSAm7VVFAqiCC0KDIYfPUpR7RioqKS8UWRURRDghoQWlVFBAooCDIorVGIKIEUAk7CWT5Zfv1j0kwpL/t3pn7ne/3zuNxzvyR5M7M+37vZOb1/cxnKQAAAAAAAAAAAAAAAAAAAAAAAAAAAAAAAAAAAAAAAAAAAAAAAAAAAAAAAAAAAAAAAAAAAAAAAAAAAAAAAAAAAAAAAAAAAAAAAAAAAAAAAAAAAAAAAAAAAAAAAAAAAAAAAAAAAAAAAAAAAAAAAAAAAAAAAAAAAAAAAAAAAAAAAAAAAAAAAAAAAAAAAAAAAAAAAAAAAAAAAAAAAAAAAAAAAAAAAAAAAAAAAAAAAAAAAAAAAAAAAAAAAAAAAAAAAABYnT0THeeE6qure1RnVneoblKdWN1gonMAbNXnqourT1TnVe+t3lL9RXXljHVN6cTqntXdG+6/t+9f7r8nzFgX413ScP1+snp/9b7qz6u3VpeNPfiYAHB89Y3VY6r7XfPPAJvgc9UfVC+uXltdNW85W3aD6qHVo6v7VHvnLYcVu6z6k+pFDdfxvu0cZDsB4IbVOdUPVLfYzkkB1sj51S9Wz68unbeUwzq5emL1/Q3f8uHj1XMbruHP7OSJ/kN1QbXfZrPZdtn2/urrWk97GlpbP978n5NtPbcLGq6RI/5if6Q/eNOGprIHHOmBATbUi6onNbwmWAe3rl5S3WvuQtgIr2kIAh873A8eSQD4murl1c1GFgWwKd5bPaSh09WcHlC9LM39bM1Hqoc3dBY8qKMOc5AHN3SQ8fAHluTMhpvnV89Yw8MaOnh5+LNVN6/eUH3zoX7oUC0A31S9ojpmwqIANslnq/tW71zxeR/V8CricF/S4FCubAgBv3+g/3iwAHCvhvcIxpACS/fxhnH2f7ei831tww372BWdj93t0oZXSW+5/n84UAC4afWXDU0IANS51Vc2TMyyk27TcP89dYfPw7J8tLprQ9+Az7t+89Ke6qV5+ANc11kN46x30jENHa49/JnaTRteKX3Bl/7rB4BzGt53AfCFHt8w695OeWpDKwPshPs3DA/8vOumgVMa3nHpcQpwYOdWd2n6qYNv3jDk8KSJjwvX9bHqjOrC+sIWgKfm4Q9wKGdV37oDx/2+PPzZeV9cPfnaf7i2BeDE6oMJAACHc25154bpV6dwasP994YTHQ8O5RPVbatLrm0BeHge/gBH4qymnSDoUXn4szqnNUwy9flJfh494cH/saG34WuqD7fDqxMBHMJp1e0aFvl5TNP1sH9MBxhXvU1T3n8/0HD/fV3D/feiCY/N6t24YWjoAxuuuVtNdNzHVL9VdaOG2YLGrkR0VfXjmTwIWE+nNCz5O8XKa//c9pZTv75bTFTPFdUPVnsnqIn1dEL1zOrqprleTqphvv8pHv6P2LnfG2AyP9A0D90vnaCWR01Qx+XV109QC5vhkQ3P3LHXzddX/fQEB/ovO/rrAkzrhY2/7z1+gjp+eYI6njZBHWyWH2v8dfOTVa8ceZAPVMft7O8KMKkvahgLPebe9/MT1PG6kTX8TXX0BHWwWY6vzm/ctfO7R1Wnjyzk16t9I48BsEofb5h2d4yx984aJmUZ41ebflIi1t9l1QtGHuP0oxo6xozxmpH7A8zh1SP3n2JEgfsv2zX6+j2qOnnkQT4wcn+AOZw/cv+xM/cd1TAJ23btb5hAiGU6f+T+Jx3V+GEjnx25P8AcLhy5//Ej99/buKGE+/L6dclGX7/XXw0QAFgAAQAAFkgAAIAFEgAAYIEEAABYIAEAABZIAACABTpm7gIA2Jbjqk/NXQSbSwAA2Ex7Gj+VMAvmFQAALJAAAAALJAAAwAIJAACwQAIAACyQAAAACyQAAMACCQAAsEACAAAskAAAAAskAADAAgkAALBAAgAALJAAAAALZDlggM20r7r53EUwm73VBWMOIAAAbKb91afnLoLZ7B17AK8AAGCBBAAAWCABAAAWSAAAgAUSAABggQQAAFggwwABNtPxDUMBYVu0AADAAgkAALBAAgAALJAAAAALJAAAwAIJAACwQAIAACyQAAAACyQAAMACCQAAsEACAAAskAAAAAskAADAAgkAALBAAgAALNAxcxcAwLZcVp0wdxHMZm+1b8wBtAAAwAIJAACwQAIAACyQAAAACyQAAMACCQAAsEACAAAskAAAAAskAADAAgkAALBAAgAALJAAAAALJAAAwAIJAACwQAIAACyQAAAACyQAAMACCQAAsEACAAAskAAAAAskAADAAgkAALBAAgAALJAAAAALJAAAwAIJAACwQAIAACyQAAAACyQAAMACCQAAsEACAAAskAAAAAskAADAAgkAALBAAgAALJAAAAALJAAAwAIJAACwQAIAACyQAAAACyQAAMACCQAAsEACAAAskAAAAAskAADAAgkAALBAAgAALNAxcxcAAIdwanV2dffqTtUZ1cnVidX+6uLqwuq86n3VW6s3X/PvOIx9DR/idre9qy8ZYLTTG3fve+/I8x8/8vyXjjz/OrtR9V3Vn1VXtfXP5srqDdVjqxuutvSV2du462dfCQDAMgkA6+em1c9UFzXus7nu9qnqx6ubrPD3WAUBAGCbBID1cUz1tIZm+6ke/NffPn3NOY5e0e+00wQAgG0SANbDHap3tHMP/utvb65utZLfbGeNDgBGAQAwlwdX76rutsJz3qv6y+q+KzznWhIAAJjDY6rfa+jwt2qnVX9cPWKGc68NAQCAVTunemHzDkXfW72k+pYZa5iVAADAKn1T9avVnrkLaXgGvqiFvg4QAABYlTs2PHDXqSf+cdXLq9vOXciqCQAArMKx1f9omMVv3ZzaEEwW9Uxc1C8LwGz+U3XXuYs4hH9XPX7uIlZJAABgp92y+pG5izgCP93QGrAIAgAAO+37GxbvWXenVk+du4hVEQAA2EmnVd85dxFb8NR27wJCX0AAAGAnPaq6wdxFbMEp1cPnLmIVBAAAdtJjJjzWe6ofaOhM+MXVzRqmEf6h6u8nPM+UNa81iwEBS2QxoJ13y6ZZwGdf9ZQOPX/AsdUPVldOcL4rm2eK4q2wGBAAa+s+Exzj8urrqudUVx3i566onlU97DA/dySOru498hhrTwAAYKd81QTH+J7q9Vv4+d+vfniC805R+1oTAADYKXcauf9fN6wbsFW/0Pg+AWNrX3sCAAA75fSR+z+/unob+11evWDkucfWvvYEAAB2yikj93/tTPvWAmYEFAAA2Al7Gjf73/7qwyP2/+CIfatOGrn/2hMAANgJe2Y+//6Zz7/2BAAAdsLV1cUj9t/TMI/Adt1mxL5Vnx25/9oTAADYKZ8Zuf/9Z9q36tMj9197AgAAO+X9I/d/fNt7lXBM9biR5x5b+9oTAADYKe8buf/d2t68/E+q/tXIc4+tfe0JAADslLdNcIxfqe6xhZ+/X/VzE5x3itrXnsWAgCWyGNDOu03TLAZ0SfXYDv064KiGb/5jn2n7G9YSWPd5AEYvBlQCALBMAsBq/J+mCQH7q3dUT6hu3/DsOa7h7/ikic/z5h35JKY1OgAcs/qaAViQ36p+dqJj3e2abae9eAXnmJ0+AADspBdXl81dxBZcVL187iJWQQAAYCddUL1w7iK24JcbP3/BRhAAANhpP9NmtAJcVP3i3EWsigAAwE47vyEErLsfqT42dxGrIgAAsArPqv527iIO4S8amv8XQwAAYBUuq76lYUz/uvlM9ciG8f+LIQAAsCrnVuc0rBS4Lq6svr36h7kLWTUBAIBV+u3qKXMXcY391XdXr5q7kDkIAACs2nMbQsCcLQFXNTz8XzBjDbMzFTCwRKYCnt8jqoubbgrfI90urB68gt9vJ42eClgLAABz+e3qK1vt6IB3V19R/cEKz7mWBAAA5nRu9eXV9zS0BuyUS6ofq76qev8OnmejeAUALJFXAOvnNg1j8S9tuub+z1W/UN18hb/HKlgOGGCbBID1dbPqexu3xO87qqdWp6249lUZHQD2NASAMQ/x46rLR+wPMIfTq/NG7P++6swR+x/fuIf4ZdUJI/bfFLeu7tvQdH/GNdvJ1UnX/PeLGjr1ndfwN3lr9YbqIyuvdLX2ds23+G26vLQAAMukBYBNZhQAALB1AgAALJAAAAALJAAAwAIJAACwQAIAACyQAAAACyQAAMACCQAAsEACAAAskAAAAAskAADAAgkAALBAAgAALJAAAAALJAAAwAIJAACwQAIAACyQAAAACyQAAMACCQAAsEACAAAskAAAAAskAADAAgkAALBAAgAALJAAAAALJAAAwAIJAACwQAIAACyQAAAACyQAAMACCQAAsEACAAAskAAAAAskAADAAgkAALBAAgAALJAAAAALJAAAwAIJAACwQAIAACyQAAAACyQAAMACCQAAsEACAAAs0DETHOOU6vIJjgOwSifPXQDMaYoAcMEExwBg/Z1RPa66X3Xr6rh5y5ndZdWHqtdWv1l9YN5ytmZPta/aO3chABvmfdWZI/Y/vrp0xP6XVSeM2H8rjq1+tnpy03xx3I0ur36u+tHqqhWcb2/D83u7LveHBOBQ9lZ/WD1g7kLW3N7q6dVZ1cNbTQgYRSdAAA7l2Xn4b8VDqp+Yu4gjIQAAcDB3rr577iI20PdWt5+7iMMRAAA4mCfkObEde6tz5i7icPxhATgYTf/b98C5CzgcAQCAA9lT3WbuIjbY7eYu4HAEAAAOZs/cBWywtX++rn2BAMxif/VPcxexwT40dwGHIwAAcDCvn7uADfa6uQs4HAEAgIN5QUNLAFtzVfXCuYs4HAEAgIN5e/XSuYvYQM+rzp27iMMRAAA4lCdU75y7iA3y5oaJgNaeAADAoVxcnd3QEuB1wMFdXf1a9aDGLdKzMlOsBvjpiWqB69vTsPLYFXMXwq50VHWjEfsvaTXAa92jenzDBEG3rI5e8fnXzZXVhxuWA35+9e4VnnstVgO8WcMyiDCFs6onVv++Yb3xY6sLqj+tXlz9wXylscucXp03dxEb5m3XbDU8/E+esZZ1cGHDN/+Nta+hWWe725jWA7jWMQ2rjl3Zoa+3N1Y3n6dEdpnTG3fve+/I8x8/8vxjWg/YfHsbd/3sKwGA+R1VvbIjv+Y+VN1qlkrZTQQANtnoAKATIOvghxvW0D5St65ekU6sANvmBsrcbl79523sd/fq2yeuBWAxBADm9sjqBtvcd+3X2wZYVwIAc7vPiH3v2eqHQQHsCgIAcxvTme/o6hZTFQKwJMc0jOEf05P/5OoT05TDAl01cv8rJ6mCJRozCVANE/EszRnV46r7NXTGPW7ecmZ3WcOopNdWv1l9YN5ytu6fGjeU4CtWXzK7yO81bhzr0m9AbN83N+7e96cjz79JwwCPbZin44qRNe/mbV/1zFY3O+IkwwDHTuX7wJH7s2yvGbHvG9uQObdZSw8auf+nJqli/e2tXlV9T0OrMQe2t3p6wxDljZkieSsTsBxoe38mA2L7btzwCmk7195W5g6A6zqt+kzj7n0/P7KGTWkB+OWRdS5x+6ltfdJbM8lMgM8aeZD91Q/t8C/K7vb4tn7NvXqWStktfr3x973vHFnDJgSAOzf005n7gbpp277q9tv4vLdikgDwjSMPsr+hI9bDdvZ3ZZf7hY78evu/1anzlMku8LSmucmfNbKOTQgAvzSyxiVvP7mNz3srJgkAN+7wC7AcyXZV9SPplMX2PbFDN8teXb2kOmmuAtloJzddc/ZHGparHmMTAsD7Rta45O0d2/i8t2J0ALj2An5D4yZkua7zqxc2DIv4YBasYGtOqx7bsBzw6Q2B8p+rNzUsB/yu2SpjE51Y3bHhenpc9UUTHffXqu8aeYzjG3d/vKydnQhrT3VJQ51s3Sea7no7kL2N6wR9+bUB4HHVb4yvB2AR7lX92chjbEIAuDStutv1qeomO3j80QHg2pkAX9744YAAS/Ce6i1zF7EC+xvmiWF7PjR3AYdzbQD4XPWcOQsB2BA/1fBwXILXz13ABnvd3AUcznU7sZxa/V16VwMczHuqf900U1Cv+yuAGpbd/vPGd3hcmququ1Tn7uA5JnsFUMP7CuP5AQ7uyS1r/Ym3Vy+du4gN9Lx29uE/ieunuqMaRgTce4ZaANbZb1TnTHi8TWgBqGEkxRuru63gXLvBmxumyN/paconbQGoYZz1I6oLRhwUYLc5r2Eu/CW6uDq7oSVgKX0ftuPqhuGhD2pD1ig52HudsxumWjX8A1i6T1ZfU7134uNuSgvAdd2jYeruB1S3bIMWvdkhV1Yfbpj35vnVu1d47snmATiQb65+J39gYLkuru5fvW0Hjr2JAeC6jm6YXXHJLmz45j+HHQ0AVd9Uvax5LzKAOXy6Ya2UsRP+HMymBwDmNXkfgOv7Xw1TaH5sxEkANs15Dc3+O/Xwh9kdLgDUMAf7lzeMDgDY7V7a0OP9b+cuBHbSkQSAGla+un/1HWkNAHanf6i+oXpU9dmZa4Edd6QBoIbhHy+qzmhY9vcTO1IRwGp9sHpSdVb1qplrgZUZM73jDaqHVo+u7lsdO0lFADvvkuqPGpaY/uPqihlq0AmQMXZ8FMCRumHD8pj3qM5sWH/7xtUpEx2frTm24W8yxkUN81nj89xkVzcM1fp49f6G9/pvaRjWN/dkLQIAY6xNAGC9PKX67yP2v7o6LUtEX+su1V+NPMaDqz+coBZ2j00MAGdUj6vuV906k8Vd1rDs72ur36w+sMJzjw4AUxXCenlFQ5+N7W7vWn3Ja21PwzfIMZ/pz628atbd8Y27psaEh606tnp2w6uSMTXv5m1f9cxWN3ne3gnqZZeZ4mH1X1de9fr7vcZ9pu9YfcmsuU0JAHsbvuHO/YDdlO2VrSYEjA4AWxkFwGb4sobm+zHeNEUhu8zYz+SuDf1iYNM8u2Huf47MQ6qfmLsIlukpjUuFV6Xz5oHcpfHfDL5h5VWzzjahBeDODfeEub9Vb9q2r7r9Nj7vrdACwP/n3iP3/6t0/juQv2783Bdj/zawak9oa/PFMNhbnTN3EYfjD7u77Gn8Q+aNE9SxG+2v/nTkMc6eoA5YJU3/2/fAuQs4HAFgd/H+f2fpB8CS7KluM3cRG+x2cxdwOALA7nL2yP2vbvy33N3sjSP3P7phhTnYFOaK2b61f76ufYFsiff/O0s/AJZkf/VPcxexwT40dwGHIwDsHt7/7zz9AFia189dwAZ73dwFHI4AsHt4/78a+gGwJC9oCL5szVXVC+cu4nAEgN3j7JH7e/9/ZN44cn/9ANgkb69eOncRG+h51blzF8FymP9/NawLwFQ2YSKgqhMbprKee3KdTdne1GoWSTIREJX3/6u0P/0AWJaLG67ZlzZc/xzY1dWvVQ9qQxbaOWbuAjikG3dkw3DObPz7/7/MFMBH6p3VQ0fsf9eGpVQ/dwQ/e1V10YhzwRQurh5VPad6fMMEQbdsdSvfrasrqw83LJb0/Ord85azNcZ4zm9PQwe++1Z3r+5U3bE6ec6iWDufrN5fvad6a/W/r/lnNtfxjWvGv6w6YaJatuPo3KcubPjmP4e9jWtpuFwAmM8dqsdWj65uO28pbKhzqxdds10wcy1s3aYHAOY1OgBMVQhH7suqlzU0Hc3dWcW2O7ZLq+dm2tZNsymdAFlPozsBrr7k5TqxelZ1RfM/MGy7c7ukekar6YHMeAIAYwgAG+Ju1d83/wPCtozt3OqsWHcCAGMYBrgBntjQaev2cxfCYnxp9efVN85dCLC+BICd9YyGd7PHzlwHy3NS9bvVf5y7EICleUbzNwXbbFcnBKwrrwAYQx+ANfXdzX/jt9mu3S6vvjbWjQDAGKMDgHkApvdvqz9r+OPAuvh09W+q82eug39hHgDGGD0PgD4A07ph9Tt5+LN+Tql+K/1+gGu4GUzrGdWXzF0EHMQ9G+ZxB7AWwITOrP46Pf5Zb59qmIb6M3MXglcAjOIVwBr5oTz8WX+nVk+ZuwhgfloApnGbhpn+LK/MJvhkwzV7ydyFLJwWAMYY3QLggTWN72hnHv6XZajP0p3Y9J1Kb1I9pHrpxMcFWJzzmm7M9uuqb61OW+lvwDq7ZXVO9c6mu87+eKW/AQdyVMNETdv9G17d0IrAMn1x4+4BF66+5N3njKa5IX86c7dzaHuqJzQ0+4293jQfr4fPNu7veMbqS2ZNfGXjrp1/1AlwvPtMcIwLq3tVvz/Bsdi99le/Wn1Dw7LSYxzXMCyQeX1q5P5meFyusX/7T05SxcL9RuO/jT105VWz6b6/8dfd01deNdf3+sb9Dd+bzsdLdHz1wcZdO6/QAjDe2Ca4N1WvnKIQFuW/VR8YeYw7TVEIo7xn5P53yrDOJXp6w0ieMd47RSFLd0HjUthjVl8yu8SPNe7ae8vqS+Z6vq3xLTlXNLwWYhm+rXGdR6/dvm7Vhe9Glzbuj3Cr1ZfMLnHvxl17566+ZK7n5k1zM7+y4VvhcastnxW6QfVTTXO9XF6dZCKgcY5t+CC36+rqZg3/88JWfUn1rhH7f7jxzYiM9/aGHt1T+GD1oobhxB/KUK9Nd0p12+qBDa3Ft5jouK+pvlYAGOcG1cVzFwHb9NGGAMq8nlw9Z+4iWJRvr14iAIwjALDJBID1cGrDN/cbzl0Ii/Dx6nbVJUYBAMzrU9Xz5i6CxXh216wDogVgHC0AbDItAOvjZtX7qpPnLoRd7aMNQ9cvqmEuagDmdUH1o3MXwa73fV3z8C8BAGBd/FL1trmLYNd6TfWS6/4LAQBgPVxZfUvmaGd6H60e2zAHwOcJAADr48PVIxs3vwhc1yXVQxpeM30BAWCcS/M/KpvrM3MXwAH9ScO3tatnroPNd0VDq9IBXy0JAOPsb5htCzbR+XMXwEG9rHp4ddnchbCxLmlYafZVB/sBAWC818xdAGzTq+cugEN6ZfX1DRO3wFb8Y3XfDvHwL/MATOHLqr+qjp67ENiCi6o75uGyCW7R0Hv77JnrYDO8quEV0icO94NaAMb7m+q5cxcBW/TDefhvin9u+Db3HdXHZq6F9fWRhmvkwR3Bw5/pHFv9UeOXaLTZVrH9Smyqk6qnNYSCua8j23psH62ekVkkZ3VM9dPVvua/IGy2A20XVk+N3eCEhuGCf9TQUXDua8u22u3i6n9WD6uOa5v0AZjel1SPru7XsNb6jeYth4X7ZENv/1c3rBOv2X/3OaG6Z3X36szqDg0rDJ50zX9jc11SfbZhwai/a1gv4q0Nw/r2zVgXAAAAAAAAAAAAAAAAAAAAAAAAAAAAAAAAAAAAAAAAAAAAAAAAAAAAAAAAAAAAAAAAAAAAAAAAAAAAAAAAAAAAAAAAAAAAAAAAAAAAAAAAAAAAAAAAAAAAAAAAAAAAAAAAAAAAAAAAAAAAAAAAAAAAAAAAAAAAAAAAAAAAAAAAAAAAAAAAAAAAAAAAAAAAAAAAAAAAAAAAAAAAAAAAAAAAAAAAAAAAAAAAAAAAAAAAAAAAAAAAAAAAAAAAAAAAAGzZ/wP7PJZq0r1MJQAAAABJRU5ErkJggg==;fontSize=20;labelPosition=right;align=left;" vertex="1" parent="LLZiwmeWTUKl-NR1jxIl-1">
          <mxGeometry x="80" y="120" width="200" height="200" as="geometry" />
        </mxCell>
        <mxCell id="LLZiwmeWTUKl-NR1jxIl-4" value="VirtualBox" style="swimlane;whiteSpace=wrap;html=1;fontSize=20;" vertex="1" parent="LLZiwmeWTUKl-NR1jxIl-1">
          <mxGeometry x="-240" y="400" width="840" height="760" as="geometry" />
        </mxCell>
        <mxCell id="LLZiwmeWTUKl-NR1jxIl-7" value="Master&#xa;IP:10.100.0.105" style="shape=image;verticalLabelPosition=middle;labelBackgroundColor=default;verticalAlign=middle;aspect=fixed;imageAspect=0;image=https://upload.wikimedia.org/wikipedia/labs/thumb/b/ba/Kubernetes-icon-color.svg/2110px-Kubernetes-icon-color.svg.png;fontSize=20;align=left;spacingRight=0;spacingLeft=0;labelPosition=right;" vertex="1" parent="LLZiwmeWTUKl-NR1jxIl-4">
          <mxGeometry x="320" y="50" width="200" height="200" as="geometry" />
        </mxCell>
        <mxCell id="LLZiwmeWTUKl-NR1jxIl-8" value="IP:10.100.0.107&lt;br&gt;nodePort:30080" style="edgeStyle=orthogonalEdgeStyle;rounded=0;orthogonalLoop=1;jettySize=auto;html=1;fontSize=20;entryX=0.5;entryY=0;entryDx=0;entryDy=0;entryPerimeter=0;strokeColor=#FF0000;strokeWidth=3;" edge="1" parent="LLZiwmeWTUKl-NR1jxIl-4" source="LLZiwmeWTUKl-NR1jxIl-7" target="s0vmD4qDMuU37e1SQd2n-1">
          <mxGeometry x="0.6774" relative="1" as="geometry">
            <mxPoint x="620" y="370" as="targetPoint" />
            <Array as="points">
              <mxPoint x="420" y="280" />
              <mxPoint x="620" y="280" />
            </Array>
            <mxPoint as="offset" />
          </mxGeometry>
        </mxCell>
        <mxCell id="LLZiwmeWTUKl-NR1jxIl-10" value="IP: 10.100.0.106&lt;br&gt;nodePort: 30080" style="edgeStyle=orthogonalEdgeStyle;rounded=0;orthogonalLoop=1;jettySize=auto;html=1;fontSize=20;entryX=0.5;entryY=0;entryDx=0;entryDy=0;labelPosition=center;verticalLabelPosition=middle;align=center;verticalAlign=middle;strokeColor=#FF0000;strokeWidth=3;" edge="1" parent="LLZiwmeWTUKl-NR1jxIl-4" source="LLZiwmeWTUKl-NR1jxIl-7" target="s0vmD4qDMuU37e1SQd2n-0">
          <mxGeometry x="0.6774" relative="1" as="geometry">
            <mxPoint x="220" y="370" as="targetPoint" />
            <Array as="points">
              <mxPoint x="420" y="280" />
              <mxPoint x="220" y="280" />
            </Array>
            <mxPoint as="offset" />
          </mxGeometry>
        </mxCell>
        <mxCell id="s0vmD4qDMuU37e1SQd2n-7" style="rounded=0;orthogonalLoop=1;jettySize=auto;html=1;entryX=0.5;entryY=0;entryDx=0;entryDy=0;strokeColor=#FF0000;strokeWidth=3;fontSize=20;edgeStyle=orthogonalEdgeStyle;" edge="1" parent="LLZiwmeWTUKl-NR1jxIl-4" target="s0vmD4qDMuU37e1SQd2n-2">
          <mxGeometry relative="1" as="geometry">
            <mxPoint x="220" y="383" as="sourcePoint" />
            <Array as="points">
              <mxPoint x="220" y="410" />
              <mxPoint x="420" y="410" />
            </Array>
          </mxGeometry>
        </mxCell>
        <mxCell id="s0vmD4qDMuU37e1SQd2n-6" style="edgeStyle=orthogonalEdgeStyle;rounded=0;orthogonalLoop=1;jettySize=auto;html=1;exitX=0.5;exitY=1;exitDx=0;exitDy=0;entryX=0.5;entryY=0;entryDx=0;entryDy=0;strokeColor=#FF0000;strokeWidth=3;fontSize=20;" edge="1" parent="LLZiwmeWTUKl-NR1jxIl-4" source="s0vmD4qDMuU37e1SQd2n-2" target="s0vmD4qDMuU37e1SQd2n-3">
          <mxGeometry relative="1" as="geometry" />
        </mxCell>
        <mxCell id="s0vmD4qDMuU37e1SQd2n-0" value="Node1" style="swimlane;whiteSpace=wrap;html=1;fontSize=20;" vertex="1" parent="LLZiwmeWTUKl-NR1jxIl-4">
          <mxGeometry x="80" y="360" width="280" height="360" as="geometry" />
        </mxCell>
        <mxCell id="s0vmD4qDMuU37e1SQd2n-3" value="POD&lt;br&gt;tartgetPort: 80" style="rounded=0;whiteSpace=wrap;html=1;fontSize=20;" vertex="1" parent="s0vmD4qDMuU37e1SQd2n-0">
          <mxGeometry x="40" y="240" width="200" height="80" as="geometry" />
        </mxCell>
        <mxCell id="s0vmD4qDMuU37e1SQd2n-1" value="Node2" style="swimlane;whiteSpace=wrap;html=1;fontSize=20;" vertex="1" parent="LLZiwmeWTUKl-NR1jxIl-4">
          <mxGeometry x="480" y="360" width="280" height="360" as="geometry" />
        </mxCell>
        <mxCell id="s0vmD4qDMuU37e1SQd2n-2" value="Service&lt;br&gt;port: 80" style="rounded=0;whiteSpace=wrap;html=1;fontSize=20;" vertex="1" parent="s0vmD4qDMuU37e1SQd2n-1">
          <mxGeometry x="-360" y="90" width="600" height="80" as="geometry" />
        </mxCell>
        <mxCell id="s0vmD4qDMuU37e1SQd2n-4" value="POD&lt;br&gt;tartgetPort: 80" style="rounded=0;whiteSpace=wrap;html=1;fontSize=20;" vertex="1" parent="s0vmD4qDMuU37e1SQd2n-1">
          <mxGeometry x="40" y="240" width="200" height="80" as="geometry" />
        </mxCell>
        <mxCell id="s0vmD4qDMuU37e1SQd2n-5" style="edgeStyle=orthogonalEdgeStyle;rounded=0;orthogonalLoop=1;jettySize=auto;html=1;exitX=0.5;exitY=1;exitDx=0;exitDy=0;entryX=0.5;entryY=0;entryDx=0;entryDy=0;strokeColor=#FF0000;strokeWidth=3;fontSize=20;" edge="1" parent="s0vmD4qDMuU37e1SQd2n-1" source="s0vmD4qDMuU37e1SQd2n-2" target="s0vmD4qDMuU37e1SQd2n-4">
          <mxGeometry relative="1" as="geometry" />
        </mxCell>
        <mxCell id="s0vmD4qDMuU37e1SQd2n-9" style="edgeStyle=orthogonalEdgeStyle;rounded=0;orthogonalLoop=1;jettySize=auto;html=1;entryX=0.5;entryY=0;entryDx=0;entryDy=0;strokeColor=#FF0000;strokeWidth=3;fontSize=20;" edge="1" parent="s0vmD4qDMuU37e1SQd2n-1" target="s0vmD4qDMuU37e1SQd2n-2">
          <mxGeometry relative="1" as="geometry">
            <mxPoint x="139" y="23" as="sourcePoint" />
            <Array as="points">
              <mxPoint x="-60" y="50" />
            </Array>
          </mxGeometry>
        </mxCell>
        <mxCell id="s0vmD4qDMuU37e1SQd2n-10" value="" style="shape=image;verticalLabelPosition=bottom;labelBackgroundColor=default;verticalAlign=top;aspect=fixed;imageAspect=0;image=data:image/png,iVBORw0KGgoAAAANSUhEUgAAAWYAAAIuCAYAAACMxaKKAAAAAXNSR0IArs4c6QAAAARnQU1BAACxjwv8YQUAAAAJcEhZcwAADsMAAA7DAcdvqGQAAEP+SURBVHhe7d2/juJM2+fx69mzeJ/ZANGTTOywM7Rsa4PmCNwhAQmarFNLuwnZiISA0BwBEyEkMofEd9LN9krLexjLVpVtsI1tjKGhgO9HqnsaF/7XTz8XRWH/EOBKNjQaTTdn4wXrzXq93gS+t3HUsn+pDuAa9B8lgBz/JfoXAGAJCjPuiCPqLaH4bvTwqmw6FgCoJjPP9k3N8TbB2t+o+rhd5vrrTeA56ec9YHO8wMxrmrlNfh9WNUbMuG/LD1lJU3460WM1kv3ZFFl9LKPHj2vpPcuPHz+kM/6KlsAWFGZYRY1mRY3gwhZ4qoxGHE8C9djzA9MX+Ik+RY3+tuulpw8mMls0pP0aPdt5lXZjIbNJ+NBMOUTbXK8D8b3UVsUL9DJfgmjb8TE5qWW+JFcrPhZFnYcfhH2pc8icnz6W1KHU4oqf3Y7ry5r5FetRmGGVydsPM4ozI7l5W6bJItLoytOsr/o6MpKuDBMVJxz9dSRv8DeZLaTx9Ct88OtJGl+f8k/4SNWpqbQ/R9LR++yMRNrTTDFtSKv9Kf3omH48e7JURXTYFZl3omX9mcjvXZEtPhZV6PWKo07uOezOT49iRbq/MwVUF++8Yl8ofFGKT11zX1qy2L0qwVIUZlhr+bESaf7cjSpFj3T1FMQyXWwP+edTvlovavyoatvPpnzN/6ot6Aee9FoLGXmT8PFyIn/mX2qXySGm2utIFePo552mKvLR89R63lveczK2o/Wic4j78s69Hr2P1ktcyV15UedLXbYfhRlWSU0RDFrR0khipGtULVzLvzL/0vPMjry2G5n55ZYM4v2pNu02MsXySz5TO1WWnvTf5/LUG0bHesS0Q9k5ZPuy1H6f1Wj67ZjCOpnJInpRUsNlaS1mahwN21GYYY/sFMH7IuqINJ4kNUZefRwepRpL+Vjpt/S/5Ck1v6x8jcNpjGSrUPmWE0/enp9NoeyMV9Idpue8C9U+h7r0dEZLXlyHaYwbQmGGdT7Mf8NCkhYWmLjva28oW8y8pe/1pJkcMaoR6GiVnud1XF+8Q3O46gXEV0/arWUu8zhcYM3Ivf45HD/HHAqnM34zjXFDKMywhy6Ui6YMpnp6YCg/PzMjZjW6/XwZqr6p9GQsfS8uhfrqA73OVLoNVb4H4bREqoDpeeaG6swUwslbR+ZPepvhOsOXmfw9VLzUcf6RFxlG60zbK3n/E69UdixL8fpjkd7U9KfP4RuZ6YzW/jSGvkJDH7+evunqYzq+6AO4L7kX1hc2faNIEAa85PbTaHfUGDEDgGUozABgGWI/cS36LRuAHIyYAcAyFGbYQ18OlszHyHVinKa+EuHgPmxFlOijoDDjxizFez7y7rfvoK9ljsKIdNOBROby5G9lybnj21GYgaO54k/b8mnCiMK7BXWO0csrQ1mcB4UZlgrftgfJu/KK4jSjKZDCyMzojjkT6/kSLTuFzpz4msvfKHBIM7doe/FQVh370VGi5RGdpVGi2f2lhu5lxwJbUZhhIV28htKed+Q5cWdcWbRncWSm2tawK6t3Pbrty0yyt3krx97qbO4i1Ldyu+I4+4WuVpTogYjOsnNP7U+f489f6qxz+nKPBTaiMMMyT/I7UMVkNUoV5cMKIjNzojZPplPeOu+yavdkOg1vZd6G3qsiXzdKtFZEZ3Z/+hzjnyseC+xDYYZdGi1prr7UP1FUZVVlkZnfEaepipxOlzMjXlWk581kGFKNKFGtbkRn6fkdOhbYiMIMu3yNpf/2LO8LVVDO9Z47G7V5bjoof5QIva8ZJaoqc72IzrLzq30suCYKM6w0eXtXo8fB6fOhOVGbe46dY1bP99WTdxMCjni9KMKzbpRo5OiITpPI15LeNoZUnWP884nHguuhMMNSE3l7V0VqEF+pUCHaM1cYtdkc6LngobzIeeaY/8x2sZ/6mNqr922EZ60o0VhuRGf5uYf768nUPEed48c/0XzziceCqyErA9dCVgZQgBEzAFiGwgwAlqEwA4BlKMwAYBkKMxC76UhQ3BMKM+6GDvpJhh59t0vvD4+DwgwAlqEwwxpBoEagOnw+8LdRlekRaUGEpZ6CUMtMDkQ3DBVar/1t1obrhzdXmJadqoju+suLBC1c75T9AYDF9A0mqRas/Y0rzsYL1htVkDeqwm1UYduowmb6VcFTy93wseNufPU8392t73hBuF70OK/p56x9N3oc7st39TqO2X5yf8Xr7ZYdt7+oOZ461/Sx02jJxogZ9jApaUvRqZ2rj2WYexx16ZHtOSIs60aCptY7Qt318NgozLgh9SIsneS3hQwyIUYlkZml65U4uF6dmFE8FAozbkedCEs10h52Read6PnvmVFxUWTmofWK1F0PSKAw4zZUjLBsPL3mTht8mP9mYj8rRILmrpdw1P5i0QeOh5Px8KgozLgZhyIsl95IFs1uFH8ZXSVh8oqbMpjqZUP5+ZkcwZZEgpauFzp+f0A1xH7iWvSnzwByMGIGAMtQmAHAMhRmALAMhRkALENhBh6aI17ApXu24aoMXAtXZQAFGDEDgGUozLh9+k66wEtFgibTQnNjOM06NWNG6zi4P1f8zHGbeNFDsaEHzj2+y9Acv5/enuPF62SmMqr8PhMruOp56d8bgFuVijk8qW1jNMMIztyozaht+8w6p8WM7vabWFbUKu9vFyOqHx/cdum5V4k1jZ+TWHbw95lYR52DKuK5Uam0+o0RM+5EHN8ppVGbqb4LxIymlO1P0bGjjXacveHKi9r/rFICXcG5HxFruq/s9xnfyq5Gyr2mzPte+DvC2VCYcR++Ib7zYMzoueM7JzNZNNryqiqg4/WktZjJbtPh1RN5Uwtl517aV+bQeiYASv0+ViPxqMpnR2HGfVMj39oxnHViRk+iRuVjkfarK6/thixSw2U1Sn2Oj+O5ejEsijU9keMNpbsay7jZ41K7b0BhxkM4FN+5p0rMaPTB2jkL0/LvXKQ7kK6ZgogW1lUh1rQW82K3kvc3T7z+XJqD3fcd4jwozLhvJ8RwHooZ/RammKp/U9MYdZXEmpqrQPR5TdWLgEhrEJ7j4RcZRzz1FmT1/hYen/r99sfq9xt4phfAbcv9NJqWc5XEuZq+CqTgahWaXY0RM2CT7ZUU0eMT6Q8+w9mYcCrj67PWR4EAHkTuSOGRm7nOeB2cebQcjsDX6/Um8Lne+FYaWRm4Fv0HCCAHUxkAYBkKM25eMvPhYLZEUpQJUfn5kdr7AyqiMOPmLb3n8MaLY24eOcGl94fHQ2EGAMtQmHH33LzYz4TXOILTz/bVi/1MZXPoiE/mOnAkCjPu3uQtzpj4IZ15W6bJ29saXXma9VVfR0aSvgXb9afS/hyFeRmdkUh7evjOuGw2R38m8jtT8L/hVm7cFwozHsp+hGU6FnObHqeKZ/3Yz6bIr+h5aj3vjVhMHIfCjLtXGvuZjbdMFe0DsZ95dHbE+1yeesNon5mITu3ccaG4OxRm3Lfs1EL2SopsLObqYze6rRn7uZx48vb8bIpvZ7yS7pBL6nAcCjPuh/5GkIL84eLYz3Qs5jZLokrsZ97+1AuBr560W6uZLvYac8wALLWXD3CO5vqByYVYm+/Xyy4LNp6X+J49/d126mcv6t/PknC2fWF/9P1/iZa3P0ftQxXecHmgljvpdcx+Vd95MzFo99TIysC16D9AADmYygAAy1CYAcAyFGYAsAyFGQAsQ2EGUMARL+CyvmvgqgxcC1dlAAUYMQOAZSjMeHD67bqO9ExGdXri6LvzkhGhrr+LDI36kpGgJ0V7mu0Fqul9+9vtBtuNuuJn95E8niKHjjO6A9FEmvrp7SW/pSU1lXFgmyZiNbGCq563Ow9URWEGpCGt9qf04zyM5wppcNu4UJ2HIdL9nZmIjYpe5fnZxkpGzx0ZS0van2q77wtptF+jQjmR2aIh7dddgdO3jy9GpxynekEadmX13lF9fZmp/SaF39KijucrWpBUcu6TN7VOcxCet3rx6DXn0vfI1jsWhRlQKhW5lDguVBWxvSjRGkzK3VL0plYfars6hyPq0kwk6bZQu/LS0vs3Dw4oOE7nVdqNdORpdWXnvhSvP5bmQI2Ue02Z94k8rYPCDKgSGGcXVZaNC806d7TnZCaLRlv0oNnxetJazNQ4OhZePZE7XVF2nIfOocjBc/8r86+GehMwEgbL9VCYgZswkT9jkfarK6/thixSw2U1Sn2Oo0mfqxfDgiS+UzneULqrsYybPS61q4nCDORZfsgqGqHqEel+XOgBx84xV7D8OxfpDqRrpiCihXWZUW068vQs1HkPuyt5f/PE68+lOfCF2nw8CjOQKxyhdqd6emAoPz+PmYP9JqaYqn9T0xh1xXPBU3N+L5I8P30ViD7vqXoREGkNwmmSwy8y8QeKb+Hx6W9zGTdlEHimF4D9UvmztCrN2XjBN+U4u/5m7bv5fbSLN0bMwK3YXkkRPT6R/i7E8IPCzLe3AHhYuSMFWn5z/fAbWM47Wg5H4Gvz7SzZb2+hXbORlYFr0X+AAHIwlQEAlqEwA4BlKMwAYBkKMwBYhsIMq+hLuHbxm/HlXKYjFTcZ+NnISycVRemnAiMyfeZuN8BeFGbYw9zOKzLvRLkP/ZnI70QB3sZNdmQkXRkmiq/rT6X9OZKOXq8zEmlPt3eqpfp0xOXPX+mi/g23TwPALdq7dlMVyE2wDjae6xT0+RtVO8PHyTvVsn2qOV6wCTy1nZy+vWae80131NFoNRojZthDZyu8z+WpN9x+s0ZphGUqB7glA7NO2KbdhjSeouy0S0d0AieiMMMqy4knb8/PplB2xivpDpNTGZmYytXHLoT9axxNVSRaXGm/Kd4S+C4UZtjD8cT33MQouJkuvmpUnIyp3GY7qBHvaJWec3ZcX9Smwr5FS3rb7ap1U/tQmGOGZSjMsIcqon/kRYbxdER7Je9/EvMLalT8+TJUfVPpyTj1XXL6u+bmT7ovXHf4MpO/0aphX0+mpm8oLx/6S5wAAFm5H3oUNv0BXUDQDu0xGiNmALAMhRkALEPsJ65Fv2UDkIMRMwBYhsIMAJahMAMlHC+QIHX7IfD9KMwAAMDYu3azdouucfb8IP+LRVW/X/ilo/oLSYON7/kmyEg/Z62vl9YhSfHjbduFITmp5/sbNahObJNGO7kBV5H3x1ivbdPhdCqdY75R2iTLmf7wm6Dz+3b9phhvl+3aNqUuudzsL1GMHVe9KOy/GITHlFhGo1VsTGXgTixkNtE3Wi9lMlvskuWcV2k3CvoSFiPvyNu0myK/ornn5US8t2PXB4pRmHEfyiJBS+NCtS+J85AqORRPqhElihNQmHEfyiJBy/pqKo0nBU5EYcadKIoE/Svzr4K+ihpPr+miezCeVCFKFCegMOM+FEaCLsXrj0V605y+w5beSBbNbhQZ6oups4fiSQHgRuV+Gl2rRZfLqRFsfj+NdmONETMAWIbCDACWIfYT16LfsgHIwYgZACxDYQYAy1CYgW9w9rhQfe10EF6ep1uQukDaEc8Por5AfHPNNm4ZhRmwniq8w67IqCM/fvxQrSPz5mB784rrT6X9OZKO7uvMRQbD/VvEAaCCvWs3L96i658vGRdar7kbP7ONXepdWd9uGe3mGnAVeX+Ml23baM68SNBviAuN29GRoMljST5WP+fdXKNfHHx395h2c42pDDy4S8eF1qFvK3+PbivX88hTac/f08l1JpsjJ+UON4nCjDvhiBpFbj8Aq1ygLhkXGjs6EtQVf9qTz+Qc89Mg/eGi2eazHBEDAotRmHEn1KjyWRct3Y4oUBeOC63F+SnNr7n8NaN3TZ1rPIJffsgqc5zOz+bRCXqwC4UZD+6CcaGxOpGgjba8bi+DU+8O1PGEJjJbtKQXx5Cqbf/uisz/MnQGcLzcDz0u2s5wVYZX+CWs7nbdvasyjv7wTzVXH2u8PX08buJ41LFE57BeB4kPCWk33ICryPtjvGzLu6KBRrOgMZUBAJahMAOAZYj9xLXot2wAcjBiBgDLUJgBwDIUZjy8s0d0niD3WFw/uqNx13Ts5zmO+OznTjzpWVCYgVvwNQ5jPU2057uJ/Rxa8mKyQzwpcOv2rt28eDsQ0akT5bbL9653Dm8w2Yv91H3RDSTmZg9f7SO1buZmkDiBruxYdF92/8kEuQo3whBPenMNuIq8P8artCoFQj8nHaWpC15U5BLPi5cn40KTzwnjQ6O79pzw7sDkHYC5x5ItzGo9vY/wefv7S69fdJxhKz33o+9QTB5L8rH6Oe9mnuSLCy3VmMoAKlh+rHLS5XJiP3PiQrccT3qthYy8SbjOciJ/5l9qs9mt5mh0ZRrN266nA2mv3qWvk5qIJ71LFGaggOP5JmzIFJlBHBqUVBD7mY0LTWnJIN6matNuI7eQ7knOMav2rKrdttAST3p3KMxAHjWy059jzTtRMXxPjHwPycaFJmUKrGnVK18+4knvDoUZUIoiOj/Mf8PYz0py4kK31GhxtOqmrqZwXF88N3oQKYwLzUM8KYAzyv3Q4zotP6LTTVw94XnZKyP0B1sFsZ+Vr8rIxnfqlnMseVdlJFuFqzJyj9O0/HM37egP/1QjnvQsjawMXIv+A7x/+uaQl9np0xV4KExlAGemPzQMZyvqTS0AwLXsvX27nxZev5s/tUCjHW5MZeBa9B8ggBxMZQCAZSjMwKn0B3yBl3/JGVADhRm4lBuK73TcZHxnIH5q22XxnSV9DpGgVVGYgUu6ifhOV15fRGb9+DhH8tmeVorvLO4jEhS4BXufRF+8RYlnyZseVDFI9RfeuFH5JpJMtGf2RpFkwlqFG0UuE9+533YpdGXxnd/Rt1v2SI0RMx5boytPs74ZxXXGIt3fqjwYyRFeR0aSvJU67Fu9676+zCR9u3Z69DcSSYw2UxxXvF58nXPZ/mINabU/pW9GnKo9e7KcvEXH/qUG4/Fo9E1St7PUubU6SR3n73ZDVh9L9bPOw0iHJunkPZOHUdanln5ubx3XHHmtss0HRWHGg4sjM8NisE1mK4vTPCXa8ybiOzX1QhHPB097Os2penxnbh+RoMegMOOxlUV0lsVplq1XFu15E/Gdmiqkz9FxRnPMQbJilsV35vYRCXoMCjNQpCxO8zuiPW2J78xSo35vVCG+s6yPSNCjUJiBPGVxmmeI9txjU3ynvlQujuc0nMRceFl854FoTyJBAevlfhp90RZdlaGKQfg4e9XEWa7KSERf3kx8p7Nxk1d/qHOsHt9Z0kckaOVGVgauRf8BAsjBVAYAWIbCDACWoTADgGUozABgGQozcMMcL05kU43o0btBYQa+gS6YqbvavsnSew5vYHlP3BZ+Itff3bWYaonCr7/XUF8bHS6PvuPwG2NNHw2FGUDK5C2+Y/FdFvIl4070WIcmqX79ojNsf8ooXt6fydNrdPfKTcSa2o/CjMel74hTo0AvCmgP/OxUgA7y0SHxydFh9By1rh+F/KTWi0aNJh+jGwf2+LK96a5oPUPtr0LI/P56l+TK7+5KRqpIT7Z3V0/kzcu55Tx5KzeOQmHGY9vGfh4RtakLaFFEZ2kMZ8l6SiouVMeJ/vwVFeDy9Q7SL0CqoNeO/UzKiegslIo1xTEozHhwNaI2K0Z07imNEs3Eher++Oe6+/sOv57US1WJolhTHIXCjMdWN2rz4HoFytYrG4nW3Z9WK/azprJYU1RGYcZjqxu1+R3rZfuS6u7v3CYzWZQdJ86CwowHVyNqs2JE514MZ2mUqCejZPSl7o9/rrK/fz7lq6hgnnOOWSbyZ9yUXuDJ9rNJxzUxoQBu317U4cVbFPsZx00eFbVZGtGpW0EM56Foz6Loy4P7k427XffU2M+46S9JzT9/J/WlsH74nEOxprRjGnAVeX+Ml21RYaaQ0GxrTGUAgGUozABgGb7BBNei37IByMGIGQAsQ2HGwyIyE7aiMONhfUdkZuxSsZ+4TxRmALAMhRl3ITe4fSsTp1l5JFu2XqYvvg3u1NjPophRALiAvYvqazdzZ1t095l57G68xN1xrr/eBJ4bPlZ9+g661F1wBXesla2X6hNn425/DpvjBao/ceeeafpOQr0NvVytY7aRfE7YX3j3XO07+Gi31hgx4040RX6pcqbpgPa3KKozG6ep+v7Mv6T5M3pukbL1yiI6y1SM79yLGcXDoTDj9i096b/P5ak3jKYAgsxURksG8dSAamaaoVKeccl6ZRGdZQ7GdxbEjGqXjO/EVVGYcReWE0/enp9N4eqMV9IdJuZmMxnBplWpbmXr1Y2+tCW+E1ajMOP26Q/UtnGZWnNX8HSc5ir9VUyO60sqpTIvMrNsvbKIzoSjYj+rUOep3xGcJ74TAPblfuhRt2VjKFXtS/Qn4zR1bGb6gzrd8iMzy9Yrieg0rWbsZ1HMqG58+PcwjawMXIv+AwSQg6kMALAMhRkALENhBgDLUJgBwDIUZgAFdHYHl+ddA1dl4Fq4KgMowIgZACxDYcaDK4ja1HfZJSM3dZxn/DjqS8Z+prM5jmS2F6im9+1vt7sL2nfFz+4jeTxFDh1ndCehiS3109tLfrtLairjwDZdXy1LrOCq5/GFAcejMAPSkFb7U/pxHsZzhXS3RleeZn3z/M5YpPs7MxEbFb3K87ONlYyeOzKWlrQ/1XbfF9Jox7d0T2S2aEj7dVfg9O3clVLoCo9TvSANu7J676i+vszUfpPCb3dRx/MVLUgqOffJm1qnOQjPW7149Jpz6XukgRyLwgwox0dtxvGdqoh9rHJS4o5kUueWoje1+lDb1fkdUZdmIkK3hdqVl5bev3lwQMFx5kSQVld27kvx+mNpDtRIudeUeZ8I0zoozEBZ1GaRQ7Gf547onMxk0WiLHjQ7Xk9ai5kaR8fCqydypyvKjvNc0aVZJqypod4EjITBcj0UZuAmTOTPWKT96spruyGL1HBZjVKf42jS5+rFsG506QGON5TuaizjZo9L7WqiMAN5lh+yikaoekSq53SPcuwccwXLv3OR7kC6ZgoiWlhXTgTpWajzHnZX8v7midefS3OQ+L5DVEZhBnKFI9TuVE8PDOXn5zFzsN/EFFP1b2oao654Llh/YexQXiR5fvoqEH3eU/UiINIahNMkh19k4g8U38LjW3rSHzdlEHimF4D9UvmztCot/LJWVSBz+k5s+gtpfTe/j3bxxogZuBXbKymixydyPD/6oLDGt6kAuEu5IwVafnP9+JtS8vvrtXAEvs79NhXaNRtZGbgW/QcIIAdTGQBgGQozcGuq5GTgplGYcTd08I7VgTm6oGYvO9PLznmxc1K0v2QL1L7O8Ruy/nd94yjMwIW1ehcc7X6NpWPuCFSt8y7z5kCGFFTrUZhx+6KR4bTbkEZX3zChR4fxHWclkZmZCMvAzxZMJxVv6Z+joH0tZCFdyYbRGep4/CjzYu9YojsJzXG8RMu2Kh7nciLeaCGNp+hG7LL96W3mxaGW/q4B3Lq9S4RObert9Ua9vd5bri81Sy7Xj81lZ463UUVH/az7nNznBZ4bXkbmuBtVxNKXq23XTywra/omjsDbqOIW/hsvMzd2xDeP5B3Lft92fdUKjzO5n6hPbyfcbtn+dIsupUuun2hFv2vaeRojZty98sjMdPRlcjTZU88beZMwtlKNNv/Mv6T5M9zKSSZ/ZCxxDkckJ4ZzdywlEZ2HjrPRlWk84p0OpL16D/ORy/aXcHwcKs6Bwoz7VxaZmY2wTGULt2QQFzXVzNv3ZPGqHe25FG+02g/XLzuW0qjNkuNMzjGr9qwOdltoS89dqxGHirOgMOMBlERmZqMvVx+JwpUuaqadK2BZv1i0euL9jB5rZcdSFtFZ9zjL9oerojDjrjSe4imLtOLIzHT05TYvQo2GR6tu6goG/cGXlxzkRh/I+bU++YrS67pR3GZODOfuWEoiOqscZ56y/VVU9LvG6SjMuBtLbySLZjynmrlSoCgyU402P1+G6vlT6ck49f10+vvr5k+6L5wiGL7M5O+ZBsyaOd7oZ/XIxHBKT1/pkD2WsojOusdZtr/DSn/XAG5W7qfR39fiqxASy/RVFQVXHdBo12yMmPEYzhyZCXwnCjPunuurt9vT9u6bNQDLEfuJa9Fv2QDkYMQMAJahMAOAZSjMAGAZCjMAWIbCDACWoTADgGUozABgGQozAFiGwgwAlqEwA4BlKMwAYBkKMwBYhsIMAJahMAOAZSjMAGAZCjMAWIbCDACWoTADgGUozABgGQozAFiGwgwAlqEwA4BlKMywjCNesJb1WrdAPCdabNTtA27Lv6J/gUvbRP8CyGDEDACWoTADgGUozABgGQozAFiGwgwAlqEwA4BlKMwAYBkKMwBYhsIMAJahMAOAZSjMAGAZCjMAWIbCDACWoTADgGUozABgGQozAFiGwgwAlqEwA4BlKMwAYBkKMwBYhsIMAJahMAOAZSjMuCOOeMFafDd6eFU2HQsAVLO5SHO8TbD2N6o+bpe5/noTeE76ebTzN/27D7yNk9eXaY4XbNbrtWn8byMbRsy4b8sPWUlTfqrqEHLkZ1Nk9bGMHuO7uL+7IvO/UuU3vfSe5cePH9IZf0VLHhuFGVZRo1lRo6awBZ4qoxHHEzX6Es8PTF/gJ/oUNeLarpeePpjIbNGQ9mv0bOdV2o2FzCbhQzPlEG1zvQ7E91JbFS/Qy3wJom3Hx+SklvmSXK34WBR1Hn4Q9qXOIXN++lhSh1JTrd/nwd918bnvuPLSWsjIi8uyK372nFxf1sz1AFbJfQuXbObtre+Gj82UxHrju/ptrlMwHeFsvEA/J7lMNdffbUf/nHh7HW7HDR877kYVzcT64faSzzctmh5RRSZ67G48P/uWPe9Y4mU555A6v8y5x237nMSyI1rl3+fBvkPnHu4r+7+P3k7y2LOPdctb7xEbI2ZYa/mxEmn+TIzW9EhXj8CWMpktpPH0K1x8yD+f8tV6UWM2VWZ+NuUrfnutRoY9M6qbhI+XE/kz/1K73O1RW4y8nLfjTZFf0fPUet5b3nMytqP1onOI+/LO/XTH/T7L+g6duyvhLEZ6qd5O6yUeIYcj6t07FyRRmGGV1NvkQStaGvn6lH+iH42qhWv5V+Zfep7Zkdd2IzO/3JJBvD/Vpt1Gpgh9yWdqp8rSk/77XJ56w+hYj5h2KDuHbF+W2u/zjx/ydkQxq/37LOqrcu7ui7QWI9nOYsQmM1lEL5Dhc2ZCXc5HYYY91Ah2qEdanR/mg6Af74uoI9J4ktQYefVxeJRqLOVj1ZCnX7/kKTW/rHyNpaP3lWwVKt9y4snb87MplJ3xSrrD9DxsodrnUMMpv8+SvvJzd8TrNWX8J+93qOf7W/LiOqout2TBcLkQhRnW+TD/Df/Pmxb+nzru+9obyhYzb6N7PWkmR2lq9DdadWWYGPI5ri/eoc+jVMHz1ZN2a5nLPA4XWDNyr38Oer96lOof+XlZvd9nQd+hc3d/S1fmkpnF2AqnM34zjXEAhRn20IVy0ZTBVL9FHsrPz8wIT41uP1+Gqm8qPRlLP/WJv15nKt2GKimD8K17qoDpeeaG6swUwslbR+ZPepvhOsOXmfw9VDDUcf6RFxlG60zbK3nfjhDLjmUpXn8s0pua/vQ5fIPav0+lqK/03PUMhRoJ587JR8x0Rmt/GkNfoaG3p6eSuvr3c/wLEIDT5X4aXdj01QAVb1agVWhlv8+6v2v+NzpbY8QM4DzUaPr5ucLVKTiIwgwAlvlX9C9wafotG4AcjJgBwDIUZthDXw6WzHPIdWKcpv70/+A+Ls9J5GvYeHy4LAozbsxSvOfj7n47u+jSrrjpkB9zye8J4nS1vZtALKVfSILKtzviWBRmoI7EHYP92ZMMpn54qzFwBhRmWCqcskiOypJv91NTGdEUSGFkZnTHnIn1fImWndFy8ibvi5b0tjstiBLNHGc2TrOUvuMuLy7U3NCSE6ep9x2oUa1eR0dzxvtM/2IqHWfq95lzI8h6zYvSuVGYYSFdlIfSnnfkOXE3Wvh2vyO5WeqNrjzN+mYE2xmLdH/HpUJta9iV1XtH9fVlJtnbkpWocJ9yp9k/n1/b8CPXn0r7cxSOqDsjkfZ0t+3tcXZkJOnbwYuF5yAjfQ7Z9TJ504q5+248lq/GSkbP6velzrn9qfb5vpBG+3Vb1KsdZ+b3qV6EwmVf6k2DPh79ruGNMKIzozDDMk/yO1AFYzVKFeXD4phKVcCT8ZY5UZvfwexTU0W+PEo0fSzpJLsCB+JCzeNtwY3iNP+qH01CnA5w0nEWal19W7p5jlL5OKNzq5rkh7OgMMMujZY0V2r0GcdDVlUWmfkNcZpZOud5pyRKtCxqs0zZejp/otEWPWh2vN4RcZpHHCcuisIMu3yNpf/2bOZsB6fMLSRlIyy/wa+nhqplUSlLfDC4bXHVrxv7WbqeGu2ORdqvrsmbrhynWXacuCoKM6w0eXuXRWtw0ryvkRO1ueekOWZHre7LwEwLqFKpE91Ko0QPxH6aFLxMEa4QF7r8OxfpDqSbzZsucvA4D2s87earcV4UZlhqIm/vC2kN4isCKkR75gqjNpsDfQXBUF7kTHPMja5Mo+MZPn3Ke2f3AVhplGhRnGZMF0wd1WnWja92qBAXaoq3+veIbwWpFXkaWXojWTTj3wFXZQD3Yi/q8O7bt8ZiFnwRLe0mGyNm4B5sr9yIHuOmUZiBG+f6a1lP27J653rie0HsJ65Fv2UDkIMRMwBYhsIMxHQOBJGbsACFGXfj0lGURF/iu1CYAcAyFGZYI6gbU3kgitJctWCW6W1npiqiu/7yIkEL1ztlfwBgsb2L6oO1v3GjGyVUQd6oCrdRhW17Q4YqeGq5Gz523I2fuaHC8YJwvehxXtPPWftu9Di+KUOv45jtJ/dXvN5u2XH7i5q+0WTNzSC04saIGfYwiWZ1YyqrqRsJWjf6kshM1EFhxg0piaksoUOGwukK1QaZEKOSeMvS9UocXO8MMaO4bxRm3I46MZVqpK2//GPeiZ6f/bLTokjQQ+sVqbsekEBhxm2oGFNZFEX5Yf6bif2sEAmau17CUfuLRR841osZxSOgMONmHIqpzI2ijGM0p3rZUH5+JkewJZGgpeuFjt8fUA1ZGbgW/ekzgByMmAHAMhRmALAMhRkALENhBgDLUJiBh+aIF3Dpnm24KgPXwlUZQAFGzABgGQozbp++ky7wUpGgybTQ3BhOs07NmNE6Du7PFT9z3CZe9FBs6IFzj+8yNMfvp7fnePE6mamMKr/PxAquel769wbgVqViDk9q2xjNMIIzN2ozats+s85pMaO7/SaWFbXK+9vFiOrHB7ddeu5VYk3j5ySWHfx9JtZR56CKeG5UKq1+Y8SMOxHHd0pp1Gaq7wIxoyll+1N07GijHWdvuPKi9j+rlEBXcO5HxJruK/t9xreyq5Fyrynzvhf+jnA2FGbch2+I7zwYM3ru+M7JTBaNtryqCuh4PWktZrLbdHj1RN7UQtm5l/aVObSeCYBSv4/VSDyq8tmZwvyfP378j//897/Xqv3f9X/9r5kv2AFumBr51o7hrBMzehI1Kh+LtF9deW03ZJEaLqtR6nN8HM/Vi2FRrOmJHG8o3dVYxs0el9p9g3jE/L/kX//6t2o/5P/9v/8ZLQPuxqH4zj1VYkajD9bOWZiWf+ci3YF0zRREtLCuCrGmtZgXu5W8v3ni9efSHOy+7xDnERdmPeEcS/4M3LYTYjgPxYx+C1NM1b+paYy6SmJNzVUg+rym6kVApDUIz/Hwi4wjnnoLsnp/C49P/X77Y/X7DTzTizNa/8d//Pf//PHj/6x//Pjf//ff//5v0WLgO6U+habFLecqiXM1fRVIwdUqNOsacBV5f4y07WV1OX01muP5G8/RP4eXyyUvx6NZ3YCryPtjfOhmrjNeB2ceLYcj8PVaFWWf641vpZGVgWvRf4AAcnAdMwBYhsIMAJahMAOAZSjMAGAZCjOsksq10PGY8Y13mSjKwM/GYZZFdGb6zJ1wgL0ozLBHNteiPxP5nSjAja48zfqqryMjSd8u7fpTaX+OwmyLzkikPd3exZbq+9GX2c9f6aL+DbdWA8At2rt2M7y5Ith4UQ7wfl/ixovkXWw5N2XoDGFzM0WVGzbMc77pbjsarUZjxAx76NyF97k89Ybbb91IzUhkoyhTGcElEZ0HIyzPHN8JnIjCDKssJ568PT+bQtkZr6Q7TE5lZCIsVx+7gPayiM5vir4EvguFGfZwPPE9NzEKbqaLrxoVJyMsvz6jcXBZRKdJl2tJb7tdtW5qHwpzzLAMhRn2UEX0j7zIMJ6OaK/k/U9ifkGNij9fdAznVHoyln4iLb4sojPs68nU9A3l5UN/wRMAICv3Q4/Cpj+g40s/aQ/SGDEDgGUozABgGWI/cS36LRuAHIyYAcAyFGY8LMeL8zNUC7LZG8D1UJjxsJbec3gjynv1b86uShf9IHXbIlAdhRkALENhxl0ojAs1yiJBy9SIEnV9s8xkdXSnUb8v25sK9d2NgV5WEF0a6P0kz4UpFgCXs3dRfe0WJcipuhk9djde4huhw6/td8PHqk8VxnSSnE6qy7l5pWy9VJ84G3f7c9i26XaJZfp5+hurVRE3P4fbSD4n+kbrohtpSMF7mMaIGXeiKfJLlTNtORHvzQtvu1Yj1F5rISNvEj5WfX/mX9L8GT23SNl62T7138n25xLOq7QbC5lN9DPVOrPFLgEvYTGKjh0Pi8KM23coLrQsErTUCVGiRUqjS7UvibOZ9hBP+jAozLgLpXGhZZGgZb4jSrQsuhSIUJhx+/QHakVxoWWRoLF/PuUrWzDL1tN9h6JElcbTa3rZ8q/MvwqiS6tQ50k8KYDvlPuhR93meL75YGytW+BvVO1L9Dsbzw/CPtUCP/1BnW7utj/5NVRl6yX7gugDvbhPt/DDwr1tOt52eZD4gDJs+sO/YPchZrbx4d/DNLIycC36DxBADqYyAMAyFGYAsAyFGQAsQ2EGAMtQmIFL0Ze7nTv7ouY2iTy1G4UZqOms0Z46/OiCFyh/Z+QpTkdhBgDLUJjxmMwUgBrx6ghOHRMaRXgmR8Cuv8vJSL3dPxTtqZ6ZGwkaeU30VR1wFx5LJN5mbpRo8lgq7rA8RhXAvdq72+miLYoKdaOoTRO/WRD/qZuO8Vz77t6y/WjPkkjQ7Z174Tqpbep9Z7Zf1FLrpba5HyWaOpaqkafR70YV4+hxOkZ19xzuQvyuxogZj8skvS3lY6WjNZZhZkbUlbXUT9pLgsuhRuLlkaBx7OcR28zYX68gSjR7LFUjT42CGFVcBIUZKJB6Oz9oRUsrKIsErRkXWnospVGiNSJPD8aoKkSQfisKM5BHjTaHXZF5J4r7PObqhbqRoEUOHUtZlGjNyNPSGFV8OwozUOLD/DeM6MyzH+1ZLRK0juJjKYgSLYsujeVFnqoXgsIY1Zh6jh5NE0H6PSjMQB5TYJsymOq38kP5+bk/Yl56I1k0uzI1b/d3V2VM3joyf+pFy4fy8qFnsitoDcx0Q6rpynfoWNSo+PNlqPqm0pOx9L3d3sJj0X3h9oYvM/mbHDDH2zb90TmoZX/kRYbROtP2St7/MGdxScR+4lr0p88AcjBiBgDLUJgBwDIUZgCwDIUZACxDYQZwZo54AZfSnYKrMnAtXJUBFGDEDACWoTADtei36zpGMxmP6Ymj74jLRoTGj6O+ZAznSXGaZntl0aWu+Nl9JI+nyKHjjO76MzGifnp7+ssDwnUyUxkHtmliTRMruOp5yQjWR0NhBmprSKv9Kf04g+K5QgJboytPs755fmcs0v2dmYiNil7l+dnGSkbPHRlLS9qfarvvC2m049vEJzJbNKT9uitw+pbtxeiU41QvSMOurN47qq8vM7XfpPCbUdTx5MX0lZy7vkNx3ByE561ePHrNeeoOxkdDYQZOUKnIpZwe+5lyILrUxIBuC7UrLy29f/PggILjdF6l3UjHjFZXdu5L8fpjaQ7USLnXlHn/sWNGKcxAbV8S5wVVdij2c3nmOM3JTBaNtuhBs+P1pLWYqXF0LLx6Ine64huiSw+f+1+ZfzXUm4CRPPBg2aAwA3dtIn/GIu1XV17bDVmkhstqlPocx4E+Vy+G5441jTjeULqrsYybvYe/1I7CDJzT8kNW0QhVj0iL4kILHTvHXMHy71ykO5CumYKIFtZlRrXpmNGzUOc97K7k/c0Trz+X5iD5HYqPh8IMnFU4Qu2WxIVenCmm6t/UNEZd8Vyw/hLaobxI8vz0VSD6vKfqRUCnmIbTJIdfZOIPFN/C41t60h83ZRB4phfA5aS+fJL2nS38wllVIHP6TmxHfIksrXpjxAzcu+2VFNHjE+nvHww/KMx8YwqAm5c7UqCdt7n+erNeB2ceLYcj8PV6vQl8b6NqdM5zaKc0sjJwLfoPEEAOpjIAwDIUZiBHMvOhOFuCeEsA92VvXs3Kpq86CG53HtXx/E2wDueD14G/cZ3859HsaoyYgXvlePL7abYNWerMmzIYHkiWgxUozLgTBTGccV8ibtKPQyEyUZSBX71oFcZbGpn9mbvkQibeMlovO0WiL0PbHXt8SdoJlp68vU22YUBLbySLb7qdGudFYcYdyY/hdP2ptD9H0tHLOiOR9nRXTLdRlB0ZSVeGFathWbxlan86GvPnr20BnrxFx6ZaZ96WaXwg5pZkkXkn6u/PRH5nXihOvV3bfZFW3QAiXBSFGXdlL4ZTFbNeayEjLxo5LifyZ/4lzZ9xyUtHWDaeThxPZvent7v9OW0/+rIp8it6pI7Teztn9KUr/qBiFjOujsKMO1IUw9mSQTxFoNq029gV4OwI8tR8ZK1kVJqarlCFckvnQ7zP5ak3jPpzvt2kdiSonuYZSHPcOV+cKL4VhRn372scTSskWlyhsnOuq4/TR5RF87jZ6Yr3dMDRcuLJ2/OzKb6d8Uq6Z/mgThflqbTnHXl+9JDjG0Jhxn1To8zRKj137Li+eNt52nSE5V7ug/5GkGM+MNP7W7Skp3YQ7lFtd/tz6MP8NxOZqYq2n3pec/9F4ug5Zl2UhxRlAJXlXr9Zv+n8hmCj6m9+nx+E1/KafAc3vC7Z8TZB4G37inIf3O26/kbVRLXM3fjRtpJNFcxoneT+dE6Fk7Mtdaxe+hrpg9cc6+NN7edA09dgx9vbtvgcaJY34Cry/hgv26LCnFeMabRrNqYyAMAyFGYAsAyxn7gW/ZYNQA5GzABgGQozcKRqkaBAfRRm3A1dMIOTk38OC3My9m8QqepSx4nbRWEGAMtQmHH7XH+XgdGdRtMMvuxukMuJ/dR30QVq5Bro6Qh/F/0Zj2RNf71I0MJozzrHCQAXtHdR/anN8YKNKqx7y/U3RQdefLefu/GD9cb39F10+i648BufzXrJbyvZ3mWnt+dE28hsu8K3m+hjWvvu3rLKx5m8y+/YO/9oN9sYMeO+qZFvbuzn01OUArcUnb65+lC9OhfDrBQ7PRJ0P9qzQNFxbuNJ8UgozHgAObGfzWbUV6JmJGhhtOdBJfGkWu3YT9waCjPuX17sZ38edZaoEwmqRr5l0Z6lyuJJ8VAozLgrjafX9Ki2KPbzNXpQqn4kaG60Z0Ll40xGfOoPJNVIunrsJ24VhRl3w3zZaLMrUzMVsLvaYfLWkfnTcDtFMHyZyd+/UWcZNYL9fNHrTaUnY+lnM41N9nIzmn6I9hcvm+plQ/n5uT9iPuo4GTADuKDcT6OtaUSC0q7YGDEDgGUozABgGWI/cS36LRuAHIyYAcAyFGbgWnR2BrGhyEFhBmq6dHwncaGPg8IMAJahMOMxmVjPkthPoyCG80B8Z2HspxbdvWe29xIti9SNCy3dHwAcYe+i+os2E6FZEvup2qEYzqL4zmRLx36G+0pGiSb3V7zebtlx+4sacaE31xgx43GVxX6eKYYzFfvpvEq7kY4SLVI5LjSj7nqwC4UZKHQghrNAaexnNko0oW5c6MH1iAu9ORRmoEidGM5DsZ8FaXQH1ytSdz1YjcIM5KkSw6nsxXdGcmM/l39l/pWOEs06Oi40Urpe9IEjcaG3g8IMFDgUw5kb31ka+7kUrz+W5kBfWTGUF0n01Y0LrbAebg9ZGbgW/ekzgByMmAHAMhRmALAMhRkALENhBgDLUJiBIzlenJ+h2jHZFPqytRpZFrX3h5tFYQaOtPSeL3ozx6X3h+ujMAOAZSjMwJkdiuF8jSNG/WxfQczoAamsDB1hylzHzaMwA2c2eYtyK1TrzNsyTd4L3ejK06yv+joykvQt364/lfbnKMzn6IxE2tPDt1FnszL6M5HfmYLPLdk3h8IMfKP9GM507Oc2rU4Vz/oxo02RX9Hz1HremxduAzeLwgyc2VGxn6miXSNmdOlJ/30uT71htM9gfypDPYfYz9tCYQbOKTu1cCj2c/WxG93WiRlVlhNP3p6fTfHtjFfSHXJJ3a2jMAN16W88KchXLo7hTMd+fn1G42edEncoZjRvf+qFwFdP2q3VTBd7jTlmABXtfc/ZLTbXDzbr9Vo1/f2B2WXBxvMS3yOov3tP/exF/YGf/b4/Z9sX9kffN5hoeftz1D5U4Q2XB2q5k17H7Ff1qcKcXk6zthH7iWvRf4AAcjCVAQCWoTADgGUozABgGQozAFiGwgzAEo54AZf1aVyVgWvhqgygACNmALAMhRm4KP12XUd6JqM6PXH03XnJiFDX30WGRn3JSNCToj3N9gLV9L797XaD7UZd8bP7SB5PkUPHGd2BaCJN/fT2kt/SkprKOLBNE7GaWMFVz9udx+2iMAMX15BW+1P6cR7Gc4U0uG1cqM7DEOn+zkzERkWv8vxsYyWj546MpSXtT7Xd94U02q9RoZzIbNGQ9uuuwOnbxxejU45TvSANu7J676i+vszUfpPCb2lRx/MVLUgqOffJm1qnOQjPW7149Jpz6Xu3n61HYQauoFKRS4njQlUR24sSrcGk3C1Fb2r1obarcziiLs1Ekm4LtSsvLb1/8+CAguN0XqXdSEeeVld27kvx+mNpDtRIudeUef8+Ik8pzMDFfUmcXVRZNi4069zRnpOZLBpt0YNmx+tJazFT4+hYePVE7nRF2XEeOociB8/9r8y/GupNwEjuYLBsUJgB5JjIn7FI+9WV13ZDFqnhshqlPsfRpM/Vi2FBEt+pHG8o3dVYxs3e3VxqR2EGbLD8kFU0QtUj0v240AOOnWOuYPl3LtIdSNdMQUQL6zKj2nTk6Vmo8x52V/L+5onXn0tz4Ms91GYKM2CFcITanerpgaH8/DxmDvabmGKq/k1NY9QVzwVPzfm9SPL89FUg+ryn6kVApDUIp0kOv8jEHyi+hcenv81l3JRB4JleAMdL5c/SbGzOxgu+KcfZ9Tdr383vo20YMQPIt72SInp8Iv1diOEHhZlvbwFgjdyRAs2O5vrhN7Ccd7QcjsDX5ttZst/eQks2sjJwLfoPEEAOpjIAwDIUZgCwDIUZACxDYQYAy1CY8dD0JVy7+M34ci7TkYqbDPxs5KWTiqL0U4ERmT5ztxtQHYUZj8vczisy70S5D/2ZyO9EAd7GTXZkJF0ZJoqv60+l/TmSjl6vMxJpT7d3qqX6dMTlz1/pov4Nt08DwDnsXbt58eZ4m2AdbDzXKejzN6p2ho+Td6pl+1RzvGATeGo7OX17zTznm+6oo91FY8SMx6WzFd7n8tQbbr9ZozTCMpUD3JKBWSds025DGk9RdtqlIzpxdyjMeGjLiSdvz8+mUHbGK+kOk1MZmZjK1ccuhP1rHE1VJFpcab8p3hKPg8KMx+V44ntuYhTcTBdfNSpOxlRusx3UiHe0Ss85O64valNh36Ilve121bqpfSjMMeMACjMelyqif+RFhvF0RHsl738S8wtqVPz5MlR9U+nJOPVdcvq75uZPui9cd/gyk7/RqmFfT6ambygvH/pLnADAfrkfeljT9Ad0AUE7tOs0RswAYBkKMwBYhthPXIt+ywYgByNmALAMhRm4C454AZfgATjN3ifRtMSt3Tl9tMdpjJgBAICRO1K4neZsPD8wXywafmlpYpTreBs/70tHo2ujk+t5TtSnQ5LMsmTbhSGFX44atcz11XqUHfelgpHK9mda5hxSI3X9xal6mW8Cl5L7dVLL/Mw2aWdqwFXk/THeTNOFMvDcqEA6Gzfxs/4m6LBQq+XmeVHB26bKhY9NQY0T66JWZSojb73dfhPLDuwvdQ6Oa15MduuH28u+CITbTBRjtZ6X/cbr7X4Ty2hHNaYygGM5nvRaCxl5k+hW66VM4p+dV2k3FjKb6Edq+WyxS50z4j7V+7HKJNZVc9x6BfvLnsNyIn/mX6o7vdXFyIvOMakp8it6nlrPe8t7Dk5BYQbqKIv2LIsLPRQJWiD1TSuDVrS0gtL9lUSXGl8S5zZtHYpK1Yg1PRmFGaijLNqzLC60DjW6TX3Tyvsi6jhRWXRpidKoVJwFhRk4Vlm05/KvzL8K4kIrajy95ha6D/PfcJsn0+dQFF1a5mBUqkKs6ckozEANxdGeS/H6Y5HeVC3fjws9ZOmNZNHsRtv1xdQ280LQlME03NfPz+SI2RXfPHcq3YZIa6B/rlYUy6JLC6ljKY1KxVmQlYFr0Z8+A8jBiBkALENhBgDLUJgBwDIUZgCwDIUZwA14rFhTrsrAtXBVBlCAETMAWIbCDFyKviMu8MTzg+imjnTOhOuHN22Ypp5nusw6gWp6mb9dN0gFVKi3+Ylt+nvhFUc4uD99Q0smH8P1d8db5MC5x3cLmuP309tzvHidzFRGld9nYgVXPS/9ewOQlYo5fIhWIfYzbtu+KGbTjWI4TSSozm5OxHGWx3fqZUfEcFbe3y6aVD8+uO3Sc9+PSk3uL/2cxLKDv8/EOuocdDZ1epv2NkbMwEVVi/1M9ZmEuKXoRasPte4/n/JlnqWoUWOV+M6jlO1PMVGm7TjPw5UXtf9ZpbuyiyJI96NSqyv7fYa3xzcHaqTca8q8fzvxpBRmoJbwKoHct+VlSmI4a0d7HorvPHcM52Qmi0ZbXtU5O15PWouZ7DZd8nspiyAtjSctcWg9Eyqlfh+rkRwRWXJ1FGagFjUae47jMp9P/z+9GvnWjvasGd9ZnxqVj0Xar668thuySA2Xa/5eymJUT+B4Q+muxjJu9m7qUjsKM2CRo6M9q8R3Rh+snbMwLf/ORboD6ZopiGhhXTlRqWdhXuxW8v7midefS3MQpfXdAAozYIPSaM9yteI7T2WKqfo3NY1RVzwXrKNSh/Ii54g1dcRTb0FW72/h8anfb3+sfr+BZ3oB5Mv9NJp2Ky3nKolzNX0VSMHVKo/SGDEDON72Soro8Yn0B5/hbEy9b30BcB65IwWa/c1cZ7wOzjxaDkfg6/V6E/i3c73xdzWyMnAt+g8QQA6mMgDAMhRm4OIeK8Iy7ZHPvTqmMnAtTGUABRgxA4BlKMzABeVGWJr4yvJoTzcvEjQW3dmXF5lppg4SsZgnRYJq5liJ7wTuVeryoMdqmZszKkRtJtsxkZn68dkiQXUjvvMijREzYIMDUZtJlSMz1Uj07JGgRkHUJvGdZ0NhBm5AaSRoafTlN0SCEt/57SjMgO3UyLc0ErQsMvPSkaDEd54FhRm4EbmRoGWRmZeOBCW+82wozMDFFERYvkbdRUojQcsiMy8dCUp8J3Drcj+Npp3YbIrMJL6zdmPEDNw4myIzie8EblvuSIFWp4XX+a6tiMy06Vhut5GVgWvRf4AAcjCVAQCWoTADgGUozMAd0AFBBPvcDwozAAAw9j6JvvumU9QCb+P5Qf5VC6pfp7/lX9Ggr3YINr7nmyQ2/RyT3KavFY4fb5tOqgvXc1LP9zdqUJ3YJs3iBlxF3h/jfbdUvGUYi2kiPk1/HG2Z17frL4sCTT9fNbO/RDF2XPWisP9iEB5TYhnt6o2pDOCi0rGY26S3nMjMVApcZDE6NvKyKfIrmnteTsR7u//IzHtAYQYuKRtvmcwdLuszvuSoG+l0rsT7XJ56w+23iux9Plgn9hPfjsIMXFI2FnP1sRvBlvXVtJx48vb8bIpvZ7yS7jDztVSwEoUZuKh0LOY2SyInMvPYnInG02u66Dqe+J6bWNbcL/bnjP3E2VCYgUv6Gsvni47hnEpPxtLffh1HGJkpPR2Zme07bOmNZNHsytRMWUR5xUtP/siLDM2ytUzbK3n/w5wFgGK5n0bfdYsul1Mj2Px+Gi1qjJgBwDIUZgCwDLGfuBb9lg1ADkbMAGAZCjOAGhzxAi6zA+7N3ifRtMu33IwNm1pOSFPgu2e5suXs554IoYqPc9fvbMOr1usgykRJrJtpjJgB2O1rLJ0fP+SHbp13mTcHMrQue1q9gxh2RUad8Dh/dMxxxu8oXH8q7c9ReB6duchguH97PGCB3JECraiVjLgSI7VUXGh03XRyvW3S3IG4UJ1ut12eufZajzTjvlQqXdn+TMucw156XkGsafbab70sHo0WnbtpJduMH2/b7tzrNXfjZ7axG5GX9e2WZRpwFXl/jLSCFsaAxm/hnY2b+LkwLlQXSlV04iJuCmrq7XW1t/N56+32m1h2YH+pc3BUsUqtH24vtwgnl+noUvW88JhLzt20gm1GrfTct+eS05fbkseSfKx+jl6w9s5r73e6a0xlALZzPOm1FjLyJlHOxVIm8c8H40LjPtX7scpJrDvsuPUK9pc9h+VE/sy/VHd6q7mxpo34VnPVpgNpr97D29W/LSq1Dn1L/Xt0S70+1qm05+/p1D6TS5KT8JeDwgxcVHg1Q/h/3mr/JzWykaBJx0SJVuR4fhQVqtqgFS2toHR/LRnE21Rt2m1kCmlBrGlyjlm1Z1XttoX23FGpsaPjUF3xpz35TM4xPw3S38NotvksVSJQKMzARamR1XNcZKr9n9TIRoImnTsuVI3s9OdY8050nO+LqONEmQJr2qlB0N8QlVqL81OaX3P5G71bMP87xyP45YesMsfp/Gyq15TiVwwKM2A7NdIaLVrS20Z4OuLGP39HXGjkw/w33ObJ9DmsuqmrKRzXF3Ua9X3juYfTDkdep91oy6s5Fk29M9r+3iYyS/7vp7b9W7/w/S1+CaEwAzdg8qbfGveiudahvHz8E40MvycudLRoymAa7uvnZ3LErN6ym+dOpdsQaQ3CaYkqBSw8Bx15Gq4zfJmpEWbUWcs3nHtdeprifS7t5ByzvEsnekeQ+t9v2hZ575e+WyIrA9eiP30GkIMRMwBYhsIMAJahMAOAZSjMAGAVkf8P2Ewexq7XRFMAAAAASUVORK5CYII=;" vertex="1" parent="LLZiwmeWTUKl-NR1jxIl-1">
          <mxGeometry x="320" y="160" width="641.58" height="1000" as="geometry" />
        </mxCell>
      </root>
    </mxGraphModel>
  </diagram>
</mxfile>
